<svg width="30" height="30" viewBox="0 0 30 30" fill="none" xmlns="http://www.w3.org/2000/svg">
<path d="M2 8.76C2 9.31228 2.44772 9.76 3 9.76C3.55228 9.76 4 9.31228 4 8.76H2ZM8.76 4C9.31228 4 9.76 3.55228 9.76 3C9.76 2.44772 9.31228 2 8.76 2V4ZM21.24 2C20.6877 2 20.24 2.44771 20.24 3C20.24 3.55228 20.6877 4 21.24 4L21.24 2ZM22.2 3V2V3ZM27 7.8H26H27ZM26 8.76C26 9.31228 26.4477 9.76 27 9.76C27.5523 9.76 28 9.31228 28 8.76H26ZM8.02711 24.3471C8.41763 23.9566 8.41763 23.3234 8.02711 22.9329C7.63658 22.5424 7.00342 22.5424 6.61289 22.9329L8.02711 24.3471ZM3.25289 26.2929C2.86237 26.6834 2.86237 27.3166 3.25289 27.7071C3.64342 28.0976 4.27658 28.0976 4.66711 27.7071L3.25289 26.2929ZM25.3329 27.7071C25.7234 28.0976 26.3566 28.0976 26.7471 27.7071C27.1376 27.3166 27.1376 26.6834 26.7471 26.2929L25.3329 27.7071ZM23.3871 22.9329C22.9966 22.5424 22.3634 22.5424 21.9729 22.9329C21.5824 23.3234 21.5824 23.9566 21.9729 24.3471L23.3871 22.9329ZM16 12C16 11.4477 15.5523 11 15 11C14.4477 11 14 11.4477 14 12H16ZM14 19.5C14 20.0523 14.4477 20.5 15 20.5C15.5523 20.5 16 20.0523 16 19.5H14ZM18.75 16.75C19.3023 16.75 19.75 16.3023 19.75 15.75C19.75 15.1977 19.3023 14.75 18.75 14.75V16.75ZM11.25 14.75C10.6977 14.75 10.25 15.1977 10.25 15.75C10.25 16.3023 10.6977 16.75 11.25 16.75V14.75ZM4 8.76V7.8H2V8.76H4ZM7.8 4H8.76V2H7.8V4ZM4 7.8C4 5.70132 5.70132 4 7.8 4V2C4.59675 2 2 4.59675 2 7.8H4ZM21.24 4H22.2V2L21.24 2L21.24 4ZM26 7.8V8.76H28V7.8H26ZM22.2 4C24.2987 4 26 5.70132 26 7.8H28C28 4.59675 25.4032 2 22.2 2V4ZM6.61289 22.9329L3.25289 26.2929L4.66711 27.7071L8.02711 24.3471L6.61289 22.9329ZM26.7471 26.2929L23.3871 22.9329L21.9729 24.3471L25.3329 27.7071L26.7471 26.2929ZM24.56 15.96C24.56 21.2398 20.2798 25.52 15 25.52V27.52C21.3844 27.52 26.56 22.3444 26.56 15.96H24.56ZM15 25.52C9.72016 25.52 5.44 21.2398 5.44 15.96H3.44C3.44 22.3444 8.61559 27.52 15 27.52V25.52ZM5.44 15.96C5.44 10.6802 9.72016 6.4 15 6.4V4.4C8.61559 4.4 3.44 9.57559 3.44 15.96H5.44ZM15 6.4C20.2798 6.4 24.56 10.6802 24.56 15.96H26.56C26.56 9.57559 21.3844 4.4 15 4.4V6.4ZM14 12V15.75H16V12H14ZM14 15.75V19.5H16V15.75H14ZM18.75 14.75H15V16.75H18.75V14.75ZM15 14.75H11.25V16.75H15V14.75Z" fill="#FC685F"/>
</svg>
