<svg width="176" height="56" viewBox="0 0 176 56" fill="none" xmlns="http://www.w3.org/2000/svg">
<path d="M68.72 41H65.78V38.78L63.56 41H58.37L55.76 38.39V20.27H58.73V38.39H65.78V20.27H68.72V41ZM89.0914 40.97H83.3614L78.3214 22.91H75.7714L77.6314 24.68V40.97H74.6614V20.24H80.4214L85.4014 38.36H87.9814L86.1214 36.47V20.24H89.0914V40.97ZM97.9927 41H95.0227V20.27H97.9927V41Z" fill="#BDBCBC"/>
<path d="M113.199 22.88H108.549V41H105.579V22.88H100.959V20.27H113.199V22.88ZM128.925 41H125.985V33.23H118.935V41H115.965V22.88L118.575 20.27H128.925V41ZM127.845 22.88H118.935V32.87L121.185 30.62H125.985V24.74L127.845 22.88ZM147.106 22.88H136.906V28.04H143.776L146.326 30.62V38.39L143.776 41H136.516L133.936 38.39V36.32L136.906 33.47V38.39H143.356V30.62H136.516L133.936 28.04V22.88L136.516 20.27H144.496L147.106 22.88ZM164.496 41H161.526V30.62H154.506V41H151.536V20.27H154.506V30.14L161.166 23.63V20.27H164.136L164.106 23.93L159.996 27.92V28.31H161.886L164.496 30.89V41Z" fill="#9368B7"/>
<path d="M11.2708 41.681V24.3848L3.89868 30.4101V43.0278L11.2708 49.0531V41.681Z" fill="#BDBCBC"/>
<path d="M2.76456 41.3266L8.78988 46.2886V24.3848L2.76456 29.3468V41.3266ZM10.0658 49.0532L1.41772 41.9646V28.7089L10.1367 21.5494V49.0532" fill="#231F20"/>
<path d="M55.7874 4.04053V11.4127H35.4431V55.2912L28.071 49.2658H14.4609V41.8937H28.071V11.4127H2.552V4.04053H55.7874Z" fill="#9368B7"/>
<path d="M54.0152 2.05569V9.42785H33.6709V53.3063L26.2988 47.281H12.6886V39.9089H26.2988V9.42785H0.779785V2.05569H54.0152Z" stroke="#231F20" stroke-width="1.41772" stroke-miterlimit="3.95"/>
</svg>
