<svg width="756" height="756" viewBox="0 0 756 756" fill="none" xmlns="http://www.w3.org/2000/svg">
<path d="M586.913 161.058L704.516 160.892C704.516 160.892 698.65 153.332 692.209 152.334C692.209 152.334 679.614 115.033 658.627 114.806C639.107 114.579 631.321 137.804 631.321 137.804C631.321 137.804 622.249 127.401 613.63 132.179C605.012 136.957 600.128 150.58 600.128 150.58C600.128 150.58 590.421 155.827 586.913 161.058Z" fill="#EBEBEB"/>
<path d="M336.692 182.196L187.972 182.423C187.972 182.423 187.972 172.912 208.444 171.022C208.444 171.022 227.087 129.473 255.649 135.006C273.445 138.454 282.563 162.857 282.563 162.857C282.563 162.857 295.974 143.625 306.755 147.329C317.535 151.034 323.916 171.521 323.916 171.521C323.916 171.521 334.999 176.904 336.692 182.196Z" fill="#EBEBEB"/>
<path d="M560.302 290.939L459.179 291.09C459.179 291.09 468.72 282.2 472.954 282.2C477.187 282.2 489.586 252.353 505.356 253.593C521.126 254.832 529.548 277.029 529.548 277.029C529.548 277.029 548.856 270.981 560.302 290.939Z" fill="#EBEBEB"/>
<path d="M137.97 263.088L51.4836 263.224C51.4836 263.224 55.7777 257.615 60.5556 256.919C60.5556 256.919 69.7184 229.461 85.1559 229.234C99.5048 229.038 105.281 246.078 105.281 246.078C105.281 246.078 111.918 238.427 118.284 241.905C124.649 245.382 128.248 255.407 128.248 255.407C128.248 255.407 135.369 259.187 137.97 263.088Z" fill="#EBEBEB"/>
<path d="M44.498 641.027L127.87 640.665L211.257 640.529L378 640.271L544.758 640.529L628.13 640.665L711.502 641.027L628.13 641.39L544.758 641.526L378 641.783L211.257 641.526L127.87 641.39L44.498 641.027Z" fill="#263238"/>
<path d="M424.071 701.311C576.869 701.311 700.736 689.282 700.736 674.443C700.736 659.604 576.869 647.574 424.071 647.574C271.272 647.574 147.405 659.604 147.405 674.443C147.405 689.282 271.272 701.311 424.071 701.311Z" fill="#EBEBEB"/>
<g opacity="0.3">
<path d="M212.481 122.366C212.481 139.208 205.791 155.361 193.881 167.27C181.972 179.18 165.82 185.87 148.977 185.87C113.884 185.87 83.8555 157.429 83.8555 122.366C83.8555 87.3029 113.854 57.2443 148.947 57.2443C184.041 57.2443 212.481 87.2726 212.481 122.366Z" fill="#BA68C8"/>
</g>
<g opacity="0.3">
<path d="M147.495 174.258C133.698 174.254 120.467 168.771 110.711 159.015C100.954 149.259 95.4715 136.028 95.4675 122.23C95.4675 93.5021 118.767 68.8867 147.495 68.8867C176.223 68.8867 200.839 93.4869 200.839 122.23C200.839 150.973 176.239 174.258 147.495 174.258Z" fill="#BA68C8"/>
</g>
<path d="M148.826 166.622C173.335 166.622 193.203 146.754 193.203 122.245C193.203 97.7363 173.335 77.868 148.826 77.868C124.317 77.868 104.449 97.7363 104.449 122.245C104.449 146.754 124.317 166.622 148.826 166.622Z" fill="#BA68C8"/>
<path d="M277.225 594.035L270.527 669.952H450.455C450.455 669.952 430.361 518.177 430.361 516.847C430.361 515.516 466.966 469.083 458.937 370.425C448.898 247.635 362.88 205.269 276.333 205.269C189.786 205.269 129.034 285.269 120.597 342.347L88.8452 470.867L130.35 476.673C130.35 476.673 132.134 563.704 154.542 586.021C176.949 608.338 277.225 594.035 277.225 594.035Z" fill="white"/>
<path opacity="0.41" d="M277.225 594.035L270.527 669.952H450.455C450.455 669.952 430.361 518.177 430.361 516.847C430.361 515.516 466.966 469.083 458.937 370.425C448.898 247.635 362.88 205.269 276.333 205.269C189.786 205.269 129.034 285.269 120.597 342.347L88.8452 470.867L130.35 476.673C130.35 476.673 132.134 563.704 154.542 586.021C176.949 608.338 277.225 594.035 277.225 594.035Z" fill="#BA68C8"/>
<path d="M433.566 373.872C430.24 389.113 410.039 396.552 410.039 396.552C408.8 399.304 415.679 453.056 417.599 456.125C419.52 459.194 408.149 467.117 406.653 465.348C405.156 463.579 391.865 428.607 364.211 422.317C360.023 427.125 354.867 430.993 349.079 433.669C343.292 436.345 337.005 437.768 330.629 437.845C308.403 438.389 292.224 422.483 292.224 422.483C292.224 422.483 276.545 445.617 243.674 439.644C210.803 433.672 203.833 407.741 203.833 407.741C203.833 407.741 161.361 420.578 145.046 385.847C132.557 359.281 146.256 339.928 153.332 332.353C154.47 331.097 155.693 329.92 156.991 328.83C156.991 328.83 153.483 296.609 173.396 279.72C193.309 262.831 219.603 264.857 219.603 264.857C219.603 264.857 230.187 232.243 260.624 225.893C291.06 219.542 309.491 237.187 309.491 237.187C318.532 233.187 328.301 231.095 338.188 231.043C348.074 230.991 357.865 232.98 366.947 236.885C398.548 250.055 397.581 281.444 397.581 281.444C397.581 281.444 420.563 289.004 428.183 307.768C435.804 326.532 423.345 345.356 423.345 345.356C423.345 345.356 436.877 358.631 433.566 373.872Z" fill="#BA68C8"/>
<g style="mix-blend-mode:multiply" opacity="0.1">
<g style="mix-blend-mode:multiply">
<path d="M364.211 422.302C360.023 427.11 354.867 430.978 349.079 433.654C343.292 436.33 337.005 437.753 330.629 437.83C308.403 438.374 292.224 422.468 292.224 422.468C292.224 422.468 276.545 445.602 243.674 439.629C210.803 433.657 203.833 407.726 203.833 407.726C203.833 407.726 161.361 420.563 145.046 385.832C132.557 359.266 146.256 339.913 153.332 332.338L156.991 328.815C156.795 329.359 145.167 361.746 165.791 382.022C186.415 402.298 216.216 389.098 216.216 389.098C216.216 389.098 220.026 421.153 245.579 428.486C273.959 436.635 292.36 415.059 292.36 415.059C292.36 415.059 325.549 451.211 364.211 422.302Z" fill="#222221"/>
</g>
</g>
<g style="mix-blend-mode:multiply" opacity="0.1">
<path d="M406.728 465.333C405.216 463.579 391.941 428.591 364.286 422.302C364.286 422.302 386.966 408.981 397.414 418.31C407.862 427.639 406.728 465.333 406.728 465.333Z" fill="#222221"/>
</g>
<path d="M376.488 212.496C378.106 211.589 380.752 210.289 382.657 210.652C382.977 210.742 383.272 210.904 383.52 211.125C383.769 211.345 383.964 211.619 384.092 211.926C384.22 212.233 384.277 212.564 384.259 212.896C384.241 213.228 384.148 213.551 383.988 213.842C382.921 215.748 381.303 217.288 379.346 218.257C378.335 218.752 377.245 219.064 376.125 219.18C374.915 219.641 373.623 219.847 372.33 219.784H372.088C372.051 219.798 372.01 219.804 371.97 219.802C371.93 219.799 371.891 219.788 371.856 219.77C371.82 219.751 371.789 219.726 371.764 219.694C371.739 219.663 371.72 219.627 371.71 219.588L371.498 219.512C368.399 218.166 375.309 213.192 376.488 212.496Z" fill="#BA68C8"/>
<g style="mix-blend-mode:multiply" opacity="0.3">
<path d="M376.488 212.496C378.106 211.589 380.752 210.289 382.657 210.652C382.977 210.742 383.272 210.904 383.52 211.125C383.769 211.345 383.964 211.619 384.092 211.926C384.22 212.233 384.277 212.564 384.259 212.896C384.241 213.228 384.148 213.551 383.988 213.842C382.921 215.748 381.303 217.288 379.346 218.257C378.335 218.752 377.245 219.064 376.125 219.18C374.915 219.641 373.623 219.847 372.33 219.784H372.088C372.051 219.798 372.01 219.804 371.97 219.802C371.93 219.799 371.891 219.788 371.856 219.77C371.82 219.751 371.789 219.726 371.764 219.694C371.739 219.663 371.72 219.627 371.71 219.588L371.498 219.512C368.399 218.166 375.309 213.192 376.488 212.496Z" fill="#222221"/>
</g>
<path d="M343.36 218.786C342.604 220.812 341.379 224.305 342.846 226.346C342.93 226.473 343.049 226.572 343.189 226.631C343.329 226.691 343.483 226.707 343.632 226.679C344.508 226.41 345.259 225.836 345.749 225.061C347.611 223.174 349.041 220.904 349.937 218.408C350.572 216.67 349.65 214.069 347.427 214.084C345.205 214.099 343.98 217.078 343.36 218.786Z" fill="#BA68C8"/>
<g style="mix-blend-mode:multiply" opacity="0.3">
<path d="M343.36 218.786C342.604 220.812 341.379 224.305 342.846 226.346C342.93 226.473 343.049 226.572 343.189 226.631C343.329 226.691 343.483 226.707 343.632 226.679C344.508 226.41 345.259 225.836 345.749 225.061C347.611 223.174 349.041 220.904 349.937 218.408C350.572 216.67 349.65 214.069 347.427 214.084C345.205 214.099 343.98 217.078 343.36 218.786Z" fill="#222221"/>
</g>
<path d="M326.592 235.585C327.136 237.278 328.966 239.334 330.1 236.794C330.133 236.726 330.151 236.651 330.151 236.575C330.151 236.499 330.133 236.424 330.1 236.356C331.612 233.332 333.124 230.081 331.612 226.694C330.659 224.487 328.331 224.396 326.773 226.135C324.551 228.599 325.7 232.848 326.592 235.585Z" fill="#BA68C8"/>
<g style="mix-blend-mode:multiply" opacity="0.3">
<path d="M326.592 235.585C327.136 237.278 328.966 239.334 330.1 236.794C330.133 236.726 330.151 236.651 330.151 236.575C330.151 236.499 330.133 236.424 330.1 236.356C331.612 233.332 333.124 230.081 331.612 226.694C330.659 224.487 328.331 224.396 326.773 226.135C324.551 228.599 325.7 232.848 326.592 235.585Z" fill="#222221"/>
</g>
<path d="M373.177 219.799C370.561 221.659 365.33 222.823 363.621 223.065C362.971 223.504 352.311 228.781 348.41 232.032C345.811 234.207 343.418 236.616 341.259 239.229C345.732 236.369 350.497 233.992 355.471 232.137C360.007 230.444 365.299 229.748 369.896 231.744C369.896 231.895 363.939 234.526 361.383 235.857C358.828 237.187 356.847 238.684 354.413 239.712C349.829 241.448 344.861 241.913 340.034 241.058C339.974 241.045 339.917 241.02 339.868 240.983C336.762 244.921 334.288 249.318 332.534 254.016C328.21 266.112 328.452 278.405 330.16 289.866C330.024 289.654 329.858 289.472 329.692 289.261C329.224 288.636 328.719 288.041 328.18 287.477C327.672 283.914 327.39 280.324 327.333 276.726C327.34 276.671 327.34 276.615 327.333 276.56C323.263 274.436 319.991 271.052 318.004 266.913C316.073 261.864 314.556 256.666 313.468 251.37C318.418 254.09 322.307 258.4 324.506 263.602C325.775 266.533 326.786 269.568 327.53 272.674C327.605 270.966 327.711 269.272 327.908 267.579C327.331 261.548 327.24 255.48 327.635 249.435C327.816 246.787 328.149 244.152 328.633 241.542C327.987 239.909 327.521 238.211 327.242 236.477C327.201 235.873 327.316 235.269 327.575 234.723C327.807 234.12 328.259 233.629 328.841 233.348C329.422 233.067 330.089 233.018 330.705 233.211C330.816 233.24 330.914 233.305 330.985 233.395C331.055 233.485 331.095 233.595 331.098 233.71C331.098 234.027 331.098 234.36 331.098 234.693C330.773 236.982 330.267 239.242 329.586 241.451C328.931 244.9 328.532 248.392 328.391 251.899C328.24 255.604 328.391 259.278 328.573 262.967C329.13 260.17 329.903 257.42 330.886 254.742C331.724 249.431 333.334 244.271 335.664 239.425C337.162 236.466 338.833 233.599 340.669 230.837C340.959 228.744 341.466 226.687 342.181 224.698C342.725 223.368 343.496 222.385 344.54 222.445C346.188 222.445 346.233 223.655 345.674 225.031C344.833 226.735 343.809 228.342 342.619 229.824C339.358 234.446 336.62 239.416 334.455 244.642C333.862 246.215 333.357 247.82 332.943 249.45C336.716 241.84 342.252 235.241 349.091 230.202C353.697 227.074 358.563 224.347 363.636 222.052C365.889 220.389 367.991 218.62 370.213 216.806C370.887 216.071 371.759 215.546 372.723 215.294C372.981 215.277 373.238 215.327 373.471 215.438C373.704 215.549 373.905 215.718 374.054 215.929C375.263 217.531 374.613 218.771 373.177 219.799Z" fill="#455A64"/>
<g style="mix-blend-mode:multiply" opacity="0.1">
<path d="M293.328 282.653C297.308 280.889 301.576 279.864 305.923 279.629C308.126 279.471 310.339 279.532 312.531 279.811C314.743 280.107 316.918 280.639 319.017 281.398C321.115 282.235 323.097 283.338 324.914 284.679C326.683 286.028 328.287 287.581 329.692 289.306C332.487 292.673 334.547 296.587 335.74 300.797C333.621 297.142 331.057 293.764 328.104 290.742C325.267 287.802 321.84 285.494 318.049 283.969C314.167 282.569 310.08 281.823 305.953 281.761C301.726 281.655 297.498 281.954 293.328 282.653Z" fill="#222221"/>
<path d="M361.761 295.384C359.49 294.073 357.088 293.004 354.594 292.194C352.194 291.419 349.704 290.951 347.186 290.803C346.556 290.765 345.925 290.765 345.296 290.803C344.671 290.758 344.045 290.758 343.421 290.803L341.516 290.939C340.896 291.06 340.261 291.166 339.626 291.257L338.673 291.393L337.736 291.635L335.83 292.073C334.545 292.391 333.321 292.844 331.96 293.147C333.026 292.297 334.147 291.519 335.316 290.818C336.527 290.161 337.791 289.61 339.096 289.17C339.762 288.958 340.427 288.747 341.092 288.565L343.149 288.217C343.842 288.089 344.545 288.028 345.25 288.036C345.95 287.991 346.652 287.991 347.352 288.036C350.159 288.192 352.903 288.929 355.411 290.198C357.915 291.389 360.094 293.169 361.761 295.384Z" fill="#222221"/>
</g>
<path d="M420.971 289.382C416.588 291.895 412.042 294.112 407.363 296.019C405.141 297.096 402.835 297.991 400.468 298.696C399.169 299.051 397.791 298.998 396.522 298.544C395.804 298.408 395.159 298.016 394.708 297.441C394.597 297.319 394.528 297.165 394.511 297.002C392.53 295.218 391.941 292.345 391.336 289.684C390.089 284.378 389.405 278.955 389.295 273.506C389.295 271.525 388.886 268.97 389.794 267.065C390.353 265.931 391.049 265.825 391.926 265.19C394.012 263.678 394.073 261.727 395.585 259.852C395.93 259.316 396.416 258.883 396.988 258.601C397.561 258.319 398.199 258.197 398.835 258.25C402.011 258.885 401.678 265.054 401.859 267.322C402.253 271.99 402.253 276.684 401.859 281.353C401.597 285.57 400.955 289.755 399.939 293.857C404.192 287.434 409.345 281.655 415.241 276.696C417.357 274.897 420.744 271.948 423.799 273.022C425.038 273.46 424.902 274.398 425.704 275.063C427.397 276.469 429.242 275.063 431.011 275.91C437.633 279.236 423.254 288.081 420.971 289.382Z" fill="#BA68C8"/>
<g style="mix-blend-mode:multiply" opacity="0.3">
<path d="M420.971 289.382C416.588 291.895 412.042 294.112 407.363 296.019C405.141 297.096 402.835 297.991 400.468 298.696C399.169 299.051 397.791 298.998 396.522 298.544C395.804 298.408 395.159 298.016 394.708 297.441C394.597 297.319 394.528 297.165 394.511 297.002C392.53 295.218 391.941 292.345 391.336 289.684C390.089 284.378 389.405 278.955 389.295 273.506C389.295 271.525 388.886 268.97 389.794 267.065C390.353 265.931 391.049 265.825 391.926 265.19C394.012 263.678 394.073 261.727 395.585 259.852C395.93 259.316 396.416 258.883 396.988 258.601C397.561 258.319 398.199 258.197 398.835 258.25C402.011 258.885 401.678 265.054 401.859 267.322C402.253 271.99 402.253 276.684 401.859 281.353C401.597 285.57 400.955 289.755 399.939 293.857C404.192 287.434 409.345 281.655 415.241 276.696C417.357 274.897 420.744 271.948 423.799 273.022C425.038 273.46 424.902 274.398 425.704 275.063C427.397 276.469 429.242 275.063 431.011 275.91C437.633 279.236 423.254 288.081 420.971 289.382Z" fill="#222221"/>
</g>
<path d="M416.284 265.658C411.536 275.244 406.214 284.513 401.633 294.175C401.512 294.417 401.103 294.175 401.209 293.993C404.778 285.148 409.586 276.893 413.94 268.425C416.23 264.273 417.988 259.848 419.172 255.256C419.898 252.126 420.079 249.208 422.196 246.804C422.281 246.696 422.394 246.612 422.522 246.562C422.65 246.511 422.789 246.495 422.925 246.515C423.061 246.535 423.19 246.59 423.298 246.675C423.406 246.76 423.49 246.872 423.541 247C424.812 250.024 421.198 254.424 419.293 257.312C418.575 260.189 417.567 262.985 416.284 265.658Z" fill="#263238"/>
<path d="M397.49 264.343C394.058 273.158 393.286 282.729 392.168 292.013C392.168 292.057 392.15 292.099 392.119 292.13C392.088 292.161 392.045 292.179 392.001 292.179C391.957 292.179 391.915 292.161 391.884 292.13C391.852 292.099 391.835 292.057 391.835 292.013C391.926 279.644 394.859 265.915 401.391 255.286C401.965 254.333 405.776 248.497 407.318 250.448C408.134 251.491 406.32 253.169 405.73 253.759C403.84 255.755 401.497 257.131 399.773 259.323C398.851 261.047 398.11 262.77 397.49 264.343Z" fill="#263238"/>
<path d="M432.145 267.397C431.278 271.605 429.604 275.605 427.216 279.176C422.377 286.887 415.452 293.041 408.119 298.318C407.953 298.454 407.741 298.151 407.892 298.03C414.893 292.406 421.803 286.509 426.626 278.828C427.887 276.831 428.979 274.732 429.892 272.553L430.104 272.039C430.093 272.021 430.087 272 430.087 271.979C430.087 271.957 430.093 271.936 430.104 271.918C430.439 269.34 430.479 266.733 430.225 264.146C429.995 263.048 430.172 261.903 430.724 260.926C430.748 260.885 430.784 260.853 430.828 260.834C430.871 260.815 430.919 260.81 430.966 260.82C433.113 261.379 432.432 265.855 432.145 267.397Z" fill="#263238"/>
<path d="M427.775 296.836C418.461 302.007 407.318 303.715 397.535 307.722C395.297 308.629 393.09 309.642 390.898 310.746C390.226 311.112 389.534 311.44 388.826 311.729C388.384 311.9 387.902 311.948 387.435 311.865C387.237 311.837 387.047 311.77 386.876 311.669C386.56 311.49 386.293 311.236 386.098 310.931C385.903 310.625 385.786 310.276 385.757 309.915C385.58 308.402 385.646 306.87 385.953 305.379C385.817 303.776 385.545 302.173 385.379 300.752C385.167 298.665 384.895 296.609 384.577 294.538C383.867 290.153 382.763 285.859 381.674 281.55C380.608 277.928 380.098 274.166 380.162 270.391C380.162 268.38 380.51 264.63 382.294 263.315C384.078 261.999 385.046 263.209 385.681 264.706C386.316 266.203 386.271 267.73 386.74 269.121C387.465 271.283 388.75 271.495 390.172 272.84C391.019 273.796 391.653 274.922 392.032 276.142C392.41 277.362 392.523 278.649 392.364 279.917C392.243 281.958 392.016 284.014 391.744 286.04C392.349 284.211 393.029 282.396 393.725 280.627C394.98 277.437 396.22 273.46 398.609 270.905C399.366 270.048 400.314 269.38 401.376 268.955C403.67 268.326 405.757 267.1 407.424 265.401C409.057 263.587 411.173 260.306 414.061 260.744C416.949 261.183 416.647 264.086 416.828 266.248C417.176 270.27 420.457 272.447 419.716 276.832C419.111 280.4 416.617 283.47 414.409 286.206C412.69 288.343 410.831 290.364 408.845 292.254C411.512 290.64 414.386 289.394 417.388 288.55C418.677 288.07 420.069 287.94 421.425 288.172C423.375 288.686 423.481 289.926 425.961 289.684C427.805 289.472 431.842 288.172 432.84 290.727C433.838 293.283 429.605 295.808 427.775 296.836Z" fill="#BA68C8"/>
<g style="mix-blend-mode:multiply" opacity="0.1">
<path d="M427.775 296.836C418.461 302.007 407.318 303.715 397.535 307.722C395.297 308.629 393.09 309.642 390.898 310.746C390.226 311.112 389.534 311.44 388.826 311.729C388.384 311.9 387.902 311.948 387.435 311.865C387.237 311.837 387.047 311.77 386.876 311.669C386.56 311.49 386.293 311.236 386.098 310.931C385.903 310.625 385.786 310.276 385.757 309.915C385.58 308.402 385.646 306.87 385.953 305.379C385.817 303.776 385.545 302.173 385.379 300.752C385.167 298.665 384.895 296.609 384.577 294.538C383.867 290.153 382.763 285.859 381.674 281.55C380.608 277.928 380.098 274.166 380.162 270.391C380.162 268.38 380.51 264.63 382.294 263.315C384.078 261.999 385.046 263.209 385.681 264.706C386.316 266.203 386.271 267.73 386.74 269.121C387.465 271.283 388.75 271.495 390.172 272.84C391.019 273.796 391.653 274.922 392.032 276.142C392.41 277.362 392.523 278.649 392.364 279.917C392.243 281.958 392.016 284.014 391.744 286.04C392.349 284.211 393.029 282.396 393.725 280.627C394.98 277.437 396.22 273.46 398.609 270.905C399.366 270.048 400.314 269.38 401.376 268.955C403.67 268.326 405.757 267.1 407.424 265.401C409.057 263.587 411.173 260.306 414.061 260.744C416.949 261.183 416.647 264.086 416.828 266.248C417.176 270.27 420.457 272.447 419.716 276.832C419.111 280.4 416.617 283.47 414.409 286.206C412.69 288.343 410.831 290.364 408.845 292.254C411.512 290.64 414.386 289.394 417.388 288.55C418.677 288.07 420.069 287.94 421.425 288.172C423.375 288.686 423.481 289.926 425.961 289.684C427.805 289.472 431.842 288.172 432.84 290.727C433.838 293.283 429.605 295.808 427.775 296.836Z" fill="#222221"/>
</g>
<path d="M384.895 281.368V281.473C384.985 281.458 384.955 281.353 384.895 281.368Z" fill="#F1D1C5"/>
<path d="M420.124 296.488C410.931 302.355 394.965 301.221 388.796 311.2V311.684C388.353 311.855 387.872 311.902 387.405 311.82C386.014 308.342 386.679 304.456 386.815 300.737C387.139 295.116 386.748 289.476 385.651 283.954C385.651 283.802 385.832 283.757 385.893 283.954C387.152 288.211 387.809 292.623 387.843 297.063C387.949 301.599 386.724 307.027 388.04 311.442L388.131 310.988C388.131 305.893 390.187 300.767 392.273 296.231C394.965 290.38 398.321 284.921 401.572 279.342C401.693 279.115 402.011 279.342 401.89 279.569C399.108 285.057 396.22 290.531 393.619 296.11C391.934 299.503 390.573 303.046 389.552 306.694C394.632 294.84 408.467 288.051 412.776 275.743C412.796 275.685 412.839 275.637 412.894 275.611C412.949 275.584 413.013 275.58 413.071 275.6C413.129 275.62 413.177 275.662 413.204 275.717C413.231 275.773 413.235 275.836 413.215 275.895C408.86 288.973 394.859 296.231 389.612 308.705C390.453 307.689 391.43 306.793 392.515 306.044C394.75 303.834 397.297 301.964 400.075 300.495C404.611 298.121 409.571 296.957 413.956 294.25C414.122 294.16 414.288 294.417 414.152 294.538C410.78 297.425 406.365 298.514 402.389 300.313C399.998 301.384 397.732 302.712 395.63 304.275C396.916 303.67 398.233 303.135 399.576 302.672C406.365 300.268 413.396 299.149 419.958 296.08C420.008 296.072 420.06 296.082 420.104 296.107C420.148 296.132 420.183 296.171 420.202 296.219C420.221 296.266 420.224 296.318 420.21 296.367C420.196 296.416 420.166 296.458 420.124 296.488Z" fill="white"/>
<path d="M384.26 274.262C383.997 275.652 384.085 277.087 384.517 278.435C384.525 278.454 384.538 278.471 384.556 278.483C384.573 278.495 384.594 278.501 384.615 278.501C384.636 278.501 384.657 278.495 384.674 278.483C384.692 278.471 384.706 278.454 384.713 278.435C384.562 277.083 384.562 275.719 384.713 274.368C384.653 274.126 384.32 274.035 384.26 274.262Z" fill="white"/>
<path d="M413.547 271.404C413.381 272.16 413.396 272.916 413.26 273.732C413.26 273.989 413.578 274.02 413.668 273.823C414.026 273.081 414.142 272.246 414.001 271.434C413.94 271.238 413.593 271.162 413.547 271.404Z" fill="white"/>
<path d="M423.708 293.63C423.316 293.835 422.941 294.073 422.589 294.341C422.567 294.365 422.551 294.395 422.545 294.427C422.538 294.459 422.54 294.493 422.551 294.524C422.562 294.555 422.581 294.583 422.607 294.604C422.632 294.625 422.662 294.638 422.695 294.643C423.188 294.608 423.651 294.393 423.995 294.039C424.192 293.857 423.965 293.479 423.708 293.63Z" fill="white"/>
<path d="M384.184 305.711C384.502 309.249 385.318 313.044 383.564 316.537C383.413 316.84 383.7 317.112 383.927 316.885C385.666 315.01 397.127 310.519 396.613 308.584C396.295 307.405 393.12 308.871 392.682 307.238C392.697 306.272 392.897 305.317 393.271 304.426C393.513 303.489 393.725 302.521 393.876 301.568C394.027 300.616 393.997 299.557 393.226 299.225C392.455 298.892 391.336 299.981 390.731 300.737C390.126 301.493 389.764 302.052 389.295 302.718C388.826 303.383 388.055 304.819 387.39 303.625C386.724 302.43 386.619 301.311 385.727 300.525C383.7 298.741 384.048 304.653 384.184 305.711Z" fill="#455A64"/>
<path d="M379.996 352.462C379.557 351.449 379.058 350.436 378.484 349.438C378.033 348.619 377.528 347.831 376.972 347.08C376.972 346.429 377.078 345.764 377.138 345.114C377.471 341.455 377.94 337.811 378.575 334.197C378.741 333.184 378.938 332.171 379.134 331.173C379.588 328.83 380.102 326.501 380.646 324.173C381.418 320.751 382.627 317.442 384.245 314.33C384.818 313.277 385.464 312.267 386.18 311.306L386.8 310.519L387.48 309.703L388.055 309.068L388.146 308.977C388.192 308.925 388.257 308.893 388.326 308.889C388.396 308.885 388.464 308.908 388.516 308.955C388.568 309.001 388.6 309.066 388.604 309.135C388.608 309.205 388.585 309.273 388.539 309.325L387.994 310.02C387.87 310.186 387.754 310.357 387.647 310.535C387.45 310.807 387.254 311.109 387.057 311.396C386.86 311.684 386.906 311.653 386.845 311.79C385.995 313.198 385.286 314.687 384.728 316.235C382.657 321.799 382.128 328.089 381.402 333.804C381.039 336.637 380.747 339.464 380.525 342.287C380.502 342.523 380.502 342.761 380.525 342.997C380.298 346.097 380.102 349.272 379.996 352.462Z" fill="#455A64"/>
<path d="M379.21 334.681C379.21 334.681 379.633 322.419 377.305 316.205C374.976 309.99 367.567 301.977 367.567 301.977C366.263 307.971 366.662 314.211 368.719 319.991C370.777 325.771 374.411 330.859 379.21 334.681Z" fill="#455A64"/>
<path d="M380.298 343.012C380.298 343.012 384.759 331.566 389.37 326.789C393.982 322.011 403.916 317.535 403.916 317.535C402.751 323.564 399.922 329.146 395.748 333.649C391.574 338.151 386.222 341.395 380.298 343.012Z" fill="#455A64"/>
<g style="mix-blend-mode:multiply" opacity="0.1">
<path d="M337.599 333.532C342.632 332.337 347.847 332.122 352.961 332.897C358.163 333.64 363.162 335.425 367.658 338.144C369.907 339.542 371.983 341.201 373.842 343.088C375.666 344.999 377.241 347.132 378.529 349.438C381.08 353.976 382.487 359.067 382.627 364.271C381.445 359.396 379.44 354.758 376.7 350.557C373.992 346.469 370.414 343.031 366.222 340.487C365.178 339.837 364.105 339.263 363.016 338.673C361.927 338.083 360.809 337.614 359.644 337.161C357.345 336.246 354.98 335.508 352.568 334.953C347.655 333.871 342.628 333.393 337.599 333.532Z" fill="#222221"/>
<path d="M411.264 348.395C408.564 347.742 405.82 347.287 403.054 347.034C400.375 346.816 397.68 346.917 395.025 347.337C393.712 347.534 392.413 347.822 391.139 348.198C389.867 348.619 388.625 349.124 387.42 349.71C384.926 350.93 382.548 352.372 380.313 354.02C381.855 351.546 383.919 349.44 386.361 347.851C387.594 347.021 388.912 346.327 390.293 345.779C391.686 345.272 393.123 344.898 394.587 344.66C397.508 344.205 400.49 344.313 403.371 344.978C406.208 345.565 408.895 346.728 411.264 348.395Z" fill="#222221"/>
</g>
<path d="M161.784 266.52C167.56 271.238 174.923 273.128 181.909 275.229C183.874 275.819 185.795 276.439 187.715 277.119C189.04 277.721 190.503 277.951 191.948 277.785C194.458 277.271 194.7 275.018 194.73 272.84C194.784 272.146 194.784 271.448 194.73 270.754V270.285C194.74 270.239 194.738 270.192 194.724 270.147C194.711 270.102 194.687 270.062 194.655 270.028C194.655 269.181 194.519 268.35 194.458 267.563C194.095 263.028 193.687 258.491 193.294 254.046C193.154 250.384 192.693 246.742 191.918 243.16C191.586 241.905 191.223 240.227 189.953 239.576C189.209 239.319 188.452 239.102 187.685 238.926C187.03 238.645 186.446 238.222 185.976 237.686C184.736 236.386 182.529 232.455 180.215 233.71C179.036 234.36 178.703 235.872 178.446 237.051C177.815 238.554 176.884 239.912 175.71 241.043C173.971 243.311 174.409 246.229 175.362 248.724C176.723 251.959 178.491 255.008 180.624 257.796C182.725 260.729 185.023 263.511 187.155 266.43C188.341 268.034 189.441 269.699 190.452 271.419C190.95 272.266 191.404 273.113 191.827 273.99C192.162 274.585 192.421 275.22 192.599 275.88C190.028 272.677 187.25 269.646 184.283 266.808C181.259 263.784 178.567 260.2 175.12 257.569C172.574 255.509 169.427 254.331 166.154 254.213C164.32 254.307 162.485 254.087 160.726 253.562C159.173 252.912 157.563 252.406 155.917 252.05C152.274 251.536 154.088 255.83 154.874 257.569C156.438 261.057 158.806 264.124 161.784 266.52Z" fill="#BA68C8"/>
<g style="mix-blend-mode:multiply" opacity="0.3">
<path d="M161.784 266.52C167.56 271.238 174.923 273.128 181.909 275.229C183.874 275.819 185.795 276.439 187.715 277.119C189.04 277.721 190.503 277.951 191.948 277.785C194.458 277.271 194.7 275.018 194.73 272.84C194.784 272.146 194.784 271.448 194.73 270.754V270.285C194.74 270.239 194.738 270.192 194.724 270.147C194.711 270.102 194.687 270.062 194.655 270.028C194.655 269.181 194.519 268.35 194.458 267.563C194.095 263.028 193.687 258.491 193.294 254.046C193.154 250.384 192.693 246.742 191.918 243.16C191.586 241.905 191.223 240.227 189.953 239.576C189.209 239.319 188.452 239.102 187.685 238.926C187.03 238.645 186.446 238.222 185.976 237.686C184.736 236.386 182.529 232.455 180.215 233.71C179.036 234.36 178.703 235.872 178.446 237.051C177.815 238.554 176.884 239.912 175.71 241.043C173.971 243.311 174.409 246.229 175.362 248.724C176.723 251.959 178.491 255.008 180.624 257.796C182.725 260.729 185.023 263.511 187.155 266.43C188.341 268.034 189.441 269.699 190.452 271.419C190.95 272.266 191.404 273.113 191.827 273.99C192.162 274.585 192.421 275.22 192.599 275.88C190.028 272.677 187.25 269.646 184.283 266.808C181.259 263.784 178.567 260.2 175.12 257.569C172.574 255.509 169.427 254.331 166.154 254.213C164.32 254.307 162.485 254.087 160.726 253.562C159.173 252.912 157.563 252.406 155.917 252.05C152.274 251.536 154.088 255.83 154.874 257.569C156.438 261.057 158.806 264.124 161.784 266.52Z" fill="#222221"/>
</g>
<path d="M190.679 272.281C191.412 267.328 191.412 262.295 190.679 257.342C189.023 247.811 185.668 238.654 180.775 230.308C179.834 228.448 178.632 226.732 177.207 225.212C176.572 224.608 175.15 223.942 175.196 225.424C175.481 226.838 176.305 228.085 177.494 228.902C178.811 229.876 180.041 230.963 181.168 232.152C181.969 233.664 182.68 235.176 183.466 236.688C185.316 240.506 186.888 244.453 188.169 248.497C190.721 256.155 191.547 264.282 190.588 272.296L190.679 272.281Z" fill="#263238"/>
<path d="M189.62 274.488C184.664 273.755 179.844 272.293 175.317 270.149C166.668 265.814 158.872 259.954 152.304 252.852C150.785 251.427 149.49 249.78 148.463 247.968C148.055 247.197 147.828 245.639 149.235 246.108C150.641 246.577 151.397 248.149 151.911 249.314C152.451 250.885 153.134 252.403 153.952 253.85C155.146 255.044 156.356 256.208 157.611 257.358C160.732 260.23 164.057 262.873 167.56 265.265C174.149 269.922 181.688 273.061 189.635 274.458C189.635 274.458 189.696 274.504 189.62 274.488Z" fill="#263238"/>
<path d="M164.808 241.345C167.409 244.813 170.1 248.205 172.882 251.521C178.432 258.099 184.322 264.382 190.527 270.346C190.527 270.346 190.648 270.346 190.527 270.255C184.479 264.207 178.749 257.751 173.275 251.189C170.534 247.913 167.883 244.576 165.322 241.179C164.808 240.468 164.279 239.773 163.81 239.047C162.948 236.794 162.298 234.708 161.27 232.515C160.756 231.487 159.531 229.098 158.367 229.945C156.9 231.064 162.268 237.913 164.808 241.345Z" fill="#263238"/>
<path d="M153.196 266.203C154.838 268.727 156.911 270.943 159.32 272.75C164.481 276.636 170.375 279.438 176.647 280.99C182.615 282.775 188.9 283.234 195.063 282.336H195.29C195.312 282.353 195.338 282.362 195.366 282.362C195.393 282.362 195.42 282.353 195.441 282.336C195.603 282.313 195.761 282.267 195.91 282.2C195.91 282.2 196.5 282.094 196.364 282.033C196.62 281.679 196.898 281.341 197.195 281.02C198.29 279.796 199.272 278.475 200.128 277.074C201.043 275.232 201.641 273.248 201.897 271.207C202.578 266.535 201.897 261.773 202.472 257.085C202.911 253.003 204.453 249.102 204.317 244.989C204.317 244.082 204.165 242.615 202.895 242.857C201.278 243.175 201.051 245.413 199.992 246.35C199.917 246.592 199.72 246.668 199.433 246.577C199.07 246.758 198.843 246.653 198.737 246.244C198.589 246.006 198.468 245.753 198.375 245.488C198.139 244.94 197.932 244.38 197.755 243.81C197.422 242.812 197.165 241.784 196.893 240.786C196.613 238.942 195.92 237.185 194.867 235.645C194.708 235.426 194.492 235.253 194.244 235.145C193.995 235.037 193.722 234.998 193.453 235.032C193.184 235.066 192.929 235.172 192.715 235.338C192.501 235.505 192.335 235.726 192.236 235.978C191.65 237.65 191.438 239.431 191.616 241.194C191.616 242.419 191.359 244.218 189.696 243.84C189.015 243.704 188.395 243.296 187.715 243.16C187.105 243.056 186.479 243.171 185.945 243.483C185.411 243.796 185.005 244.286 184.797 244.868C184.086 246.592 184.691 248.784 185.054 250.538C185.558 252.793 186.199 255.015 186.974 257.191C188.486 261.334 191.812 269.166 193.536 273.203C194.474 275.426 183.95 252.489 179.928 247.862C178.943 246.924 177.644 246.385 176.284 246.35C175.407 246.35 174.591 246.698 173.714 246.683C172.815 246.604 171.942 246.347 171.143 245.927C168.966 244.959 165.247 243.81 164.642 247.182C164.355 248.694 165.065 250.206 165.095 251.718C164.895 253.159 164.412 254.546 163.674 255.8C162.419 259.021 165.428 261.848 167.53 263.995C170.144 266.649 172.988 269.068 176.027 271.223C177.902 272.583 185.099 277.271 187.05 278.48C184.555 277.21 176.829 272.432 174.394 271.011C172.791 270.089 171.219 269.121 169.677 268.123C168.135 267.125 166.91 266.127 165.443 265.326C164.254 264.737 162.923 264.496 161.603 264.63C159.807 264.465 158.031 264.136 156.296 263.647C155.358 263.496 153.619 262.907 152.939 263.859C152.364 264.464 152.712 265.522 153.196 266.203Z" fill="#BA68C8"/>
<g style="mix-blend-mode:multiply" opacity="0.09">
<path d="M153.196 266.203C154.838 268.727 156.911 270.943 159.32 272.75C164.481 276.636 170.375 279.438 176.647 280.99C182.615 282.775 188.9 283.234 195.063 282.336H195.29C195.312 282.353 195.338 282.362 195.366 282.362C195.393 282.362 195.42 282.353 195.441 282.336C195.603 282.313 195.761 282.267 195.91 282.2C195.91 282.2 196.5 282.094 196.364 282.033C196.62 281.679 196.898 281.341 197.195 281.02C198.29 279.796 199.272 278.475 200.128 277.074C201.043 275.232 201.641 273.248 201.897 271.207C202.578 266.535 201.897 261.773 202.472 257.085C202.911 253.003 204.453 249.102 204.317 244.989C204.317 244.082 204.165 242.615 202.895 242.857C201.278 243.175 201.051 245.413 199.992 246.35C199.917 246.592 199.72 246.668 199.433 246.577C199.07 246.758 198.843 246.653 198.737 246.244C198.589 246.006 198.468 245.753 198.375 245.488C198.139 244.94 197.932 244.38 197.755 243.81C197.422 242.812 197.165 241.784 196.893 240.786C196.613 238.942 195.92 237.185 194.867 235.645C194.708 235.426 194.492 235.253 194.244 235.145C193.995 235.037 193.722 234.998 193.453 235.032C193.184 235.066 192.929 235.172 192.715 235.338C192.501 235.505 192.335 235.726 192.236 235.978C191.65 237.65 191.438 239.431 191.616 241.194C191.616 242.419 191.359 244.218 189.696 243.84C189.015 243.704 188.395 243.296 187.715 243.16C187.105 243.056 186.479 243.171 185.945 243.483C185.411 243.796 185.005 244.286 184.797 244.868C184.086 246.592 184.691 248.784 185.054 250.538C185.558 252.793 186.199 255.015 186.974 257.191C188.486 261.334 191.812 269.166 193.536 273.203C194.474 275.426 183.95 252.489 179.928 247.862C178.943 246.924 177.644 246.385 176.284 246.35C175.407 246.35 174.591 246.698 173.714 246.683C172.815 246.604 171.942 246.347 171.143 245.927C168.966 244.959 165.247 243.81 164.642 247.182C164.355 248.694 165.065 250.206 165.095 251.718C164.895 253.159 164.412 254.546 163.674 255.8C162.419 259.021 165.428 261.848 167.53 263.995C170.144 266.649 172.988 269.068 176.027 271.223C177.902 272.583 185.099 277.271 187.05 278.48C184.555 277.21 176.829 272.432 174.394 271.011C172.791 270.089 171.219 269.121 169.677 268.123C168.135 267.125 166.91 266.127 165.443 265.326C164.254 264.737 162.923 264.496 161.603 264.63C159.807 264.465 158.031 264.136 156.296 263.647C155.358 263.496 153.619 262.907 152.939 263.859C152.364 264.464 152.712 265.522 153.196 266.203Z" fill="#222221"/>
</g>
<path d="M165.005 273.566C173.926 279.02 184.113 282.057 194.564 282.381C194.583 282.392 194.603 282.397 194.625 282.397C194.646 282.397 194.667 282.392 194.685 282.381H195.063H195.29C195.311 282.398 195.338 282.408 195.366 282.408C195.393 282.408 195.42 282.398 195.441 282.381C195.603 282.358 195.761 282.312 195.91 282.245C195.91 282.245 196.5 282.139 196.364 282.079C196.62 281.725 196.898 281.386 197.195 281.066C199.143 277.479 200.152 273.459 200.128 269.378C199.992 266.762 199.418 264.161 199.176 261.531C198.921 258.857 198.871 256.168 199.025 253.487C198.813 256.087 198.752 258.697 198.843 261.304C198.949 263.799 199.372 266.263 199.554 268.743C199.902 273.385 198.148 277.255 196.53 281.353C197.364 277.696 197.619 273.931 197.286 270.194C196.708 265.686 195.788 261.228 194.534 256.859C194.534 256.738 194.337 256.768 194.368 256.859C195.199 261.274 196.364 265.689 196.832 270.149C197.22 273.984 197.005 277.856 196.197 281.625C192.568 277.225 189.665 272.311 186.505 267.594C183.451 263.013 180.065 258.662 176.375 254.575C176.375 254.575 176.209 254.575 176.269 254.681C180.031 259.059 183.472 263.703 186.566 268.577C189.256 273.12 192.289 277.452 195.638 281.534C191.879 279.033 188.397 276.139 185.25 272.901C182.015 269.348 178.9 265.673 175.815 261.984C178.839 265.885 181.863 269.862 185.235 273.536C188.411 276.856 192.022 279.729 195.97 282.079C185.976 281.716 176.768 276.273 168.361 270.996C174.923 275.184 181.652 279.508 189.076 281.383C185.672 281.007 182.304 280.354 179.006 279.433C174.182 277.993 169.555 275.962 165.231 273.385L165.005 273.566Z" fill="white"/>
<path d="M194.171 245.73C194.171 245.594 194.398 245.594 194.383 245.73C194.247 248.38 194.247 251.034 194.383 253.683C194.373 253.714 194.354 253.74 194.328 253.759C194.302 253.777 194.271 253.787 194.239 253.787C194.207 253.787 194.176 253.777 194.151 253.759C194.125 253.74 194.106 253.714 194.096 253.683C193.665 251.048 193.69 248.357 194.171 245.73Z" fill="white"/>
<path d="M171.007 256.45C171.71 256.985 172.363 257.582 172.958 258.234C172.958 258.325 172.958 258.492 172.807 258.416C172.112 257.855 171.469 257.232 170.886 256.556C170.856 256.481 170.856 256.375 171.007 256.45Z" fill="white"/>
<path d="M165.171 269.136L166.229 269.862C166.381 269.952 166.229 270.179 166.108 270.073L165.095 269.287C165.005 269.257 165.08 269.136 165.171 269.136Z" fill="white"/>
<path d="M191.193 284.256C194.353 285.42 198.042 286.191 199.917 289.291C199.95 289.346 200.002 289.387 200.063 289.407C200.123 289.428 200.189 289.426 200.249 289.403C200.309 289.379 200.358 289.335 200.389 289.279C200.419 289.222 200.429 289.157 200.416 289.094C199.902 286.675 203.016 273.974 201.066 273.702C199.887 273.521 199.221 277.119 197.573 276.862C196.878 276.756 196.061 275.622 195.562 275.154C194.924 274.518 194.247 273.922 193.536 273.37C192.871 272.871 191.903 272.417 191.162 273.022C190.421 273.627 190.663 275.108 190.936 276.046C191.208 276.983 191.465 277.558 191.737 278.208C192.009 278.858 192.765 280.249 191.359 280.385C190.146 280.281 188.924 280.384 187.745 280.688C185.039 281.822 190.24 283.863 191.193 284.256Z" fill="#455A64"/>
<path d="M224.577 325.987H224.457L222.294 325.67C221.901 325.67 221.493 325.67 221.1 325.67C220.54 324.158 219.921 322.827 219.255 321.451C218.907 320.695 218.529 319.939 218.151 319.183C216.881 316.704 215.511 314.304 214.039 311.986C209.291 304.426 204.271 297.199 200.098 289.442C198.778 286.993 197.558 284.473 196.439 281.882C196.348 281.701 196.288 281.519 196.212 281.353C195.91 280.612 195.592 279.841 195.305 279.085C195.305 278.904 195.517 278.783 195.608 278.964C195.834 279.523 196.076 280.068 196.348 280.627C196.348 280.778 196.485 280.93 196.545 281.066C196.545 281.066 196.666 281.338 196.742 281.474C197.818 283.715 199.025 285.891 200.355 287.991C203.954 293.797 208.263 299.225 212.345 304.774C212.648 305.182 212.95 305.59 213.237 306.014C215.892 309.561 218.311 313.279 220.48 317.142C222.055 319.989 223.425 322.945 224.577 325.987Z" fill="#455A64"/>
<path d="M220.525 321.179C220.525 321.179 211.453 312.863 205.254 310.595C199.055 308.327 188.123 308.705 188.123 308.705C191.823 313.6 196.818 317.362 202.544 319.567C208.27 321.771 214.498 322.33 220.525 321.179Z" fill="#455A64"/>
<path d="M212.663 306.664C212.663 306.664 210.546 294.568 211.998 288.112C213.449 281.655 219.648 272.659 219.648 272.659C221.777 278.414 222.251 284.65 221.016 290.66C219.781 296.67 216.888 302.214 212.663 306.664Z" fill="#455A64"/>
<path d="M220.888 230.217C222.823 229.748 224.109 233.816 224.456 235.071C225.249 238.409 224.842 241.92 223.307 244.989C223.247 245.227 223.144 245.453 223.005 245.655C223.005 245.655 223.005 245.655 223.005 245.745L222.808 245.942C222.72 246.022 222.611 246.077 222.494 246.101C222.377 246.125 222.256 246.117 222.143 246.078C219.648 244.989 219.769 241.421 219.799 239.214C219.739 237.853 218.605 230.777 220.888 230.217Z" fill="#BA68C8"/>
<g style="mix-blend-mode:multiply" opacity="0.2">
<path d="M220.888 230.217C222.823 229.748 224.109 233.816 224.456 235.071C225.249 238.409 224.842 241.92 223.307 244.989C223.247 245.227 223.144 245.453 223.005 245.655C223.005 245.655 223.005 245.655 223.005 245.745L222.808 245.942C222.72 246.022 222.611 246.077 222.494 246.101C222.377 246.125 222.256 246.117 222.143 246.078C219.648 244.989 219.769 241.421 219.799 239.214C219.739 237.853 218.605 230.777 220.888 230.217Z" fill="#222221"/>
</g>
<path d="M207.976 251.808C206.796 255.12 209.004 258.325 211 260.684C211.771 261.591 214.114 264.162 215.112 262.846C215.19 262.86 215.271 262.845 215.338 262.803C215.405 262.761 215.454 262.696 215.475 262.619C215.777 261.292 215.623 259.902 215.037 258.673C214.266 256.586 213.525 254.424 212.542 252.398C211.559 250.372 209.034 248.905 207.976 251.808Z" fill="#BA68C8"/>
<g style="mix-blend-mode:multiply" opacity="0.2">
<path d="M207.976 251.808C206.796 255.12 209.004 258.325 211 260.684C211.771 261.591 214.114 264.162 215.112 262.846C215.19 262.86 215.271 262.845 215.338 262.803C215.405 262.761 215.454 262.696 215.475 262.619C215.777 261.292 215.623 259.902 215.037 258.673C214.266 256.586 213.525 254.424 212.542 252.398C211.559 250.372 209.034 248.905 207.976 251.808Z" fill="#222221"/>
</g>
<path d="M247.53 286.766C246.316 291.668 243.488 296.019 239.501 299.119C239.695 304.221 239.279 309.327 238.261 314.33C237.656 314.768 237.097 315.252 236.553 315.736C236.825 314.436 237.052 313.15 237.248 311.835C237.253 311.795 237.253 311.754 237.248 311.714C229.068 307.405 225.409 299.074 222.34 290.652C222.582 290.652 235.282 295.974 237.626 309.582C238.345 303.138 238.177 296.627 237.127 290.228C233.68 280.158 225.031 272.977 216.655 266.354C215.134 265.346 213.85 264.02 212.89 262.468C212.827 262.363 212.776 262.252 212.739 262.135C212.406 261.334 211.998 259.595 213.071 259.111C214.145 258.628 215.007 259.973 215.536 260.714C215.62 260.824 215.696 260.94 215.763 261.062C217.275 263.149 218.62 265.341 219.951 267.518C223.115 269.882 226.102 272.474 228.887 275.275C231.774 278.184 234.206 281.512 236.099 285.148C235.963 284.604 235.857 284.059 235.721 283.5C233.615 275.754 230.568 268.295 226.649 261.289C224.9 258.284 223.383 255.15 222.113 251.914C221.217 249.633 220.731 247.212 220.677 244.763C220.696 244.172 220.798 243.586 220.979 243.024C221.387 241.769 222.491 241.194 223.353 242.449C223.661 242.964 223.842 243.544 223.882 244.143C224.003 245.307 223.882 246.607 223.882 247.469C224.018 249.692 224.124 251.929 224.2 254.167C224.925 255.679 225.712 257.055 226.528 258.476C231.064 265.927 234.621 273.931 237.112 282.29C238.101 285.9 238.814 289.58 239.244 293.298C239.568 290.369 240.129 287.472 240.922 284.634C242.086 280.416 247.046 273.067 247.091 273.037C248.431 277.497 248.583 282.23 247.53 286.766Z" fill="#455A64"/>
<g style="mix-blend-mode:multiply" opacity="0.1">
<path d="M190.966 349.423C192.029 343.847 194.823 338.747 198.949 334.848C201.994 331.859 205.588 329.487 209.533 327.862L211.499 327.046L213.585 326.426C216.393 325.649 219.318 325.387 222.219 325.655L224.381 325.957C225.091 326.063 225.787 326.305 226.482 326.471L227.526 326.758L228.539 327.136C229.189 327.408 229.884 327.635 230.52 327.968C235.615 330.413 239.967 334.17 243.13 338.854C239.273 335.027 234.7 331.995 229.673 329.934C224.782 327.982 219.389 327.68 214.311 329.072C209.175 330.5 204.402 333.005 200.31 336.42C196.17 339.917 192.96 344.385 190.966 349.423Z" fill="#222221"/>
<path d="M268.592 311.306C264.703 310.737 260.765 310.58 256.844 310.837C253.022 311.068 249.259 311.884 245.685 313.256C242.142 314.678 238.884 316.726 236.069 319.304C233.227 322.02 230.72 325.066 228.599 328.376C229.801 324.464 231.827 320.855 234.542 317.792C235.932 316.254 237.489 314.874 239.183 313.68C240.911 312.522 242.75 311.54 244.672 310.746C252.428 307.872 260.991 308.088 268.592 311.351V311.306Z" fill="#222221"/>
<path d="M176.904 329.722C178.661 328.433 180.706 327.592 182.861 327.272C185.06 326.889 187.317 326.998 189.469 327.59C191.635 328.161 193.631 329.245 195.29 330.75C196.118 331.468 196.854 332.286 197.482 333.184C198.074 334.077 198.58 335.024 198.994 336.012C198.072 335.407 197.331 334.696 196.484 334.122C195.682 333.529 194.85 332.979 193.99 332.474C192.345 331.484 190.568 330.73 188.713 330.236C186.844 329.727 184.919 329.448 182.982 329.404C180.951 329.372 178.921 329.478 176.904 329.722Z" fill="#222221"/>
</g>
<g style="mix-blend-mode:multiply" opacity="0.1">
<path d="M270.028 379.633C273.179 377.696 276.659 376.353 280.295 375.672C283.969 374.943 287.737 374.811 291.453 375.278C293.307 375.538 295.141 375.927 296.942 376.443C298.722 377.032 300.451 377.766 302.113 378.635C305.398 380.346 308.331 382.659 310.761 385.454C307.727 383.561 304.535 381.932 301.221 380.586C299.591 379.944 297.925 379.399 296.231 378.953C294.544 378.53 292.832 378.212 291.105 378C287.625 377.551 284.107 377.48 280.612 377.788C277.039 378.11 273.499 378.727 270.028 379.633Z" fill="#222221"/>
<path d="M297.955 400.68C300.027 394.787 303.748 389.612 308.675 385.772C313.65 381.854 319.569 379.315 325.836 378.408C332.106 377.372 338.541 378.143 344.388 380.631C347.271 381.889 349.931 383.604 352.266 385.711C354.593 387.754 356.543 390.19 358.027 392.908C356.12 390.561 353.896 388.49 351.419 386.754C349.012 385.019 346.376 383.625 343.587 382.612C340.824 381.624 337.94 381.013 335.014 380.797C334.287 380.709 333.554 380.673 332.822 380.691H330.629C329.117 380.858 327.696 380.918 326.244 381.16L324.067 381.538C323.704 381.538 323.341 381.659 322.978 381.75L321.92 382.037L319.803 382.627C319.108 382.869 318.427 383.156 317.732 383.398C316.356 383.916 315.013 384.517 313.71 385.197C312.455 385.968 311.124 386.634 309.945 387.51C305.008 390.942 300.909 395.443 297.955 400.68Z" fill="#222221"/>
<path d="M358.027 392.878C356.12 390.531 353.896 388.46 351.419 386.724C349.015 384.988 346.378 383.598 343.587 382.596C340.831 381.598 337.952 380.982 335.029 380.767C334.297 380.679 333.559 380.644 332.822 380.661H330.629C329.117 380.827 327.696 380.858 326.244 381.115L324.067 381.493C323.704 381.493 323.341 381.614 322.978 381.704L321.92 382.007L319.788 382.596C319.108 382.808 318.427 383.111 317.732 383.368C316.547 383.787 315.395 384.292 314.284 384.88L313.71 385.152L312.334 385.938C311.513 386.401 310.715 386.906 309.945 387.45C305.004 390.89 300.905 395.402 297.955 400.65C300.022 394.758 303.744 389.587 308.675 385.757C309.549 385.025 310.468 384.348 311.427 383.73C312.032 383.352 312.651 382.974 313.271 382.627C317.183 380.499 321.434 379.066 325.836 378.393C332.104 377.341 338.542 378.108 344.388 380.601C347.265 381.861 349.92 383.576 352.251 385.681C354.586 387.72 356.542 390.157 358.027 392.878Z" fill="#222221"/>
</g>
<path d="M276.152 338.28C279.504 341.083 283.04 343.659 286.736 345.991C288.466 347.236 290.291 348.343 292.194 349.302C293.252 349.807 294.441 349.971 295.596 349.771C296.229 349.77 296.838 349.532 297.305 349.106C297.41 349.018 297.489 348.903 297.532 348.773C299.497 347.533 300.435 345.19 301.357 343.012C303.208 338.672 304.606 334.152 305.53 329.525C305.863 327.847 306.558 325.685 306.074 323.961C305.757 322.918 305.197 322.721 304.562 322.041C303.05 320.453 303.247 318.775 302.249 316.945C302.038 316.434 301.692 315.991 301.246 315.663C300.801 315.335 300.275 315.135 299.724 315.086C296.927 315.086 296.277 320.468 295.778 322.358C294.732 326.272 294.024 330.268 293.661 334.303C293.254 337.938 293.173 341.601 293.419 345.25C290.752 339.136 287.218 333.437 282.926 328.331C281.414 326.486 278.964 323.462 276.197 323.916C275.078 324.097 275.048 324.914 274.262 325.428C272.599 326.365 271.238 324.853 269.605 325.352C263.481 327.121 274.398 336.828 276.152 338.28Z" fill="#BA68C8"/>
<g style="mix-blend-mode:multiply" opacity="0.3">
<path d="M276.152 338.28C279.504 341.083 283.04 343.659 286.736 345.991C288.466 347.236 290.291 348.343 292.194 349.302C293.252 349.807 294.441 349.971 295.596 349.771C296.229 349.77 296.838 349.532 297.305 349.106C297.41 349.018 297.489 348.903 297.532 348.773C299.497 347.533 300.435 345.19 301.357 343.012C303.208 338.672 304.606 334.152 305.53 329.525C305.863 327.847 306.558 325.685 306.074 323.961C305.757 322.918 305.197 322.721 304.562 322.041C303.05 320.453 303.247 318.775 302.249 316.945C302.038 316.434 301.692 315.991 301.246 315.663C300.801 315.335 300.275 315.135 299.724 315.086C296.927 315.086 296.277 320.468 295.778 322.358C294.732 326.272 294.024 330.268 293.661 334.303C293.254 337.938 293.173 341.601 293.419 345.25C290.752 339.136 287.218 333.437 282.926 328.331C281.414 326.486 278.964 323.462 276.197 323.916C275.078 324.097 275.048 324.914 274.262 325.428C272.599 326.365 271.238 324.853 269.605 325.352C263.481 327.121 274.398 336.828 276.152 338.28Z" fill="#222221"/>
</g>
<path d="M283.727 318.775C286.328 327.65 289.457 336.359 291.907 345.28C291.982 345.492 292.36 345.401 292.3 345.19C290.591 337.1 287.764 329.344 285.299 321.466C283.977 317.584 283.149 313.55 282.835 309.461C282.699 306.679 282.971 304.184 281.474 301.795C281.417 301.691 281.332 301.605 281.23 301.544C281.127 301.484 281.011 301.452 280.892 301.452C280.773 301.452 280.656 301.484 280.554 301.544C280.452 301.605 280.367 301.691 280.31 301.795C278.798 304.245 281.172 308.478 282.381 311.215C282.567 313.775 283.018 316.308 283.727 318.775Z" fill="#263238"/>
<path d="M299.936 320.544C301.538 328.558 300.752 336.828 300.298 344.917C300.298 344.958 300.314 344.996 300.343 345.024C300.371 345.053 300.41 345.069 300.45 345.069C300.49 345.069 300.528 345.053 300.557 345.024C300.585 344.996 300.601 344.958 300.601 344.917C302.385 334.333 301.916 322.237 297.985 312.168C297.637 311.275 295.263 305.726 293.661 307.148C292.814 307.919 294.099 309.627 294.507 310.172C296.022 311.976 297.44 313.858 298.756 315.811C299.285 317.52 299.648 319.032 299.936 320.544Z" fill="#263238"/>
<path d="M269.938 317.853C270.047 321.569 270.874 325.23 272.372 328.633C275.559 335.837 280.108 342.357 285.768 347.836C285.889 347.957 286.116 347.745 285.995 347.609C280.884 341.757 275.88 335.709 272.931 328.422C272.149 326.534 271.537 324.581 271.102 322.585C271.102 322.449 271.026 322.283 270.981 322.116C270.935 321.95 270.981 322.116 270.981 322.011C271.088 319.77 271.449 317.548 272.054 315.388C272.311 314.375 272.674 312.621 271.918 312.364C270.028 312.576 269.953 316.507 269.938 317.853Z" fill="#263238"/>
<path d="M269.227 343.602C276.394 349.408 285.632 352.553 293.419 357.437C295.188 358.556 296.912 359.75 298.62 360.975C299.136 361.395 299.676 361.784 300.238 362.139C300.588 362.353 300.992 362.463 301.402 362.457C301.577 362.469 301.752 362.443 301.916 362.381C302.209 362.27 302.471 362.092 302.681 361.861C302.891 361.63 303.043 361.352 303.126 361.05C303.507 359.802 303.681 358.5 303.64 357.195C304.003 355.849 304.472 354.519 304.819 353.339C305.323 351.595 305.868 349.872 306.452 348.168C307.707 344.524 309.295 341.047 310.882 337.584C312.349 334.658 313.368 331.529 313.906 328.301C314.133 326.577 314.466 323.341 313.15 321.95C311.835 320.559 310.807 321.451 310.126 322.615C309.446 323.78 309.174 325.095 308.614 326.229C307.677 327.968 306.558 327.953 305.137 328.89C304.271 329.578 303.562 330.442 303.056 331.424C302.551 332.407 302.26 333.487 302.204 334.59C301.992 336.344 301.886 338.129 301.81 339.898C301.568 338.234 301.266 336.601 300.933 334.984C300.344 332.081 299.89 328.497 298.242 325.912C297.725 325.072 297.021 324.363 296.186 323.84C294.356 322.949 292.792 321.593 291.65 319.909C290.516 318.11 289.215 314.995 286.69 314.934C284.165 314.874 283.984 317.399 283.5 319.213C282.593 322.585 279.463 323.946 279.448 327.786C279.448 330.916 281.081 333.91 282.548 336.571C283.692 338.67 284.975 340.691 286.388 342.619C284.354 340.844 282.091 339.349 279.66 338.174C278.635 337.565 277.465 337.241 276.273 337.236C274.534 337.388 274.247 338.431 272.19 337.811C270.678 337.357 267.412 335.588 266.142 337.66C264.872 339.731 267.821 342.453 269.227 343.602Z" fill="#BA68C8"/>
<g style="mix-blend-mode:multiply" opacity="0.1">
<path d="M269.227 343.602C276.394 349.408 285.632 352.553 293.419 357.437C295.188 358.556 296.912 359.75 298.62 360.975C299.136 361.395 299.676 361.784 300.238 362.139C300.588 362.353 300.992 362.463 301.402 362.457C301.577 362.469 301.752 362.443 301.916 362.381C302.209 362.27 302.471 362.092 302.681 361.861C302.891 361.63 303.043 361.352 303.126 361.05C303.507 359.802 303.681 358.5 303.64 357.195C304.003 355.849 304.472 354.519 304.819 353.339C305.323 351.595 305.868 349.872 306.452 348.168C307.707 344.524 309.295 341.047 310.882 337.584C312.349 334.658 313.368 331.529 313.906 328.301C314.133 326.577 314.466 323.341 313.15 321.95C311.835 320.559 310.807 321.451 310.126 322.615C309.446 323.78 309.174 325.095 308.614 326.229C307.677 327.968 306.558 327.953 305.137 328.89C304.271 329.578 303.562 330.442 303.056 331.424C302.551 332.407 302.26 333.487 302.204 334.59C301.992 336.344 301.886 338.129 301.81 339.898C301.568 338.234 301.266 336.601 300.933 334.984C300.344 332.081 299.89 328.497 298.242 325.912C297.725 325.072 297.021 324.363 296.186 323.84C294.356 322.949 292.792 321.593 291.65 319.909C290.516 318.11 289.215 314.995 286.69 314.934C284.165 314.874 283.984 317.399 283.5 319.213C282.593 322.585 279.463 323.946 279.448 327.786C279.448 330.916 281.081 333.91 282.548 336.571C283.692 338.67 284.975 340.691 286.388 342.619C284.354 340.844 282.091 339.349 279.66 338.174C278.635 337.565 277.465 337.241 276.273 337.236C274.534 337.388 274.247 338.431 272.19 337.811C270.678 337.357 267.412 335.588 266.142 337.66C264.872 339.731 267.821 342.453 269.227 343.602Z" fill="#222221"/>
</g>
<path d="M308.115 336.889C308.115 336.889 308.115 336.994 308.115 336.979C308.115 336.964 308.055 336.859 308.115 336.889Z" fill="#F1D1C5"/>
<path d="M275.804 344.449C282.744 350.784 296.533 352.296 300.283 361.716V362.139C300.634 362.353 301.037 362.463 301.447 362.457C303.156 359.705 303.171 356.303 303.625 353.112C304.196 348.27 305.38 343.52 307.148 338.975C307.148 338.854 307.027 338.779 306.951 338.9C305.228 342.338 304.001 346.003 303.307 349.786C302.536 353.581 302.763 358.435 300.979 362.003C300.971 361.872 300.971 361.741 300.979 361.61C301.765 357.255 300.767 352.538 299.678 348.41C298.272 343.012 296.171 337.826 294.296 332.61C294.296 332.398 293.918 332.61 293.978 332.761C295.49 337.856 297.168 342.952 298.514 348.093C299.44 351.232 300.068 354.452 300.389 357.709C297.758 346.898 287.053 339.021 285.269 327.892C285.257 327.848 285.23 327.808 285.193 327.78C285.156 327.752 285.111 327.737 285.065 327.737C285.019 327.737 284.973 327.752 284.937 327.78C284.9 327.808 284.873 327.848 284.861 327.892C286.615 339.701 297.441 348.002 299.981 359.418C299.425 358.42 298.727 357.508 297.909 356.711C296.34 354.489 294.45 352.512 292.3 350.844C288.792 348.123 284.74 346.399 281.398 343.436C281.277 343.315 281.096 343.436 281.202 343.647C283.636 346.671 287.25 348.183 290.349 350.33C292.227 351.605 293.961 353.081 295.52 354.73C294.516 354.019 293.471 353.368 292.391 352.78C286.978 349.756 281.156 347.7 276.016 344.086C275.992 344.072 275.965 344.063 275.938 344.059C275.911 344.055 275.883 344.057 275.856 344.064C275.802 344.078 275.756 344.113 275.728 344.161C275.7 344.21 275.692 344.267 275.707 344.321C275.721 344.375 275.756 344.421 275.804 344.449Z" fill="white"/>
<path d="M309.718 330.931C309.726 332.157 309.435 333.366 308.871 334.454C308.871 334.545 308.675 334.454 308.705 334.454C309.057 333.334 309.28 332.178 309.37 331.007C309.401 330.75 309.703 330.72 309.718 330.931Z" fill="white"/>
<path d="M285.194 324.082C285.194 324.747 285.088 325.428 285.088 326.108C285.088 326.32 284.77 326.305 284.725 326.108C284.538 325.421 284.564 324.693 284.801 324.022C284.876 323.87 285.179 323.855 285.194 324.082Z" fill="white"/>
<path d="M273.173 341.485C273.478 341.722 273.766 341.98 274.035 342.256C274.053 342.28 274.063 342.308 274.065 342.337C274.067 342.367 274.061 342.396 274.046 342.422C274.032 342.448 274.01 342.469 273.984 342.482C273.958 342.496 273.928 342.501 273.899 342.498C273.483 342.399 273.121 342.145 272.886 341.788C272.735 341.606 272.992 341.319 273.173 341.485Z" fill="white"/>
<path d="M305.061 357.543C304.26 360.567 302.99 363.591 303.957 366.857C304.048 367.129 303.761 367.325 303.61 367.083C302.4 365.224 293.298 359.675 294.039 358.102C294.477 357.149 296.972 358.888 297.592 357.543C297.749 356.724 297.749 355.882 297.592 355.063C297.592 354.231 297.486 353.385 297.501 352.553C297.516 351.721 297.698 350.814 298.408 350.648C299.119 350.482 299.92 351.57 300.313 352.311C300.707 353.052 300.933 353.566 301.236 354.201C301.538 354.836 301.977 356.197 302.748 355.275C303.519 354.352 303.761 353.415 304.638 352.886C306.528 351.676 305.303 356.635 305.061 357.543Z" fill="#455A64"/>
<path d="M313.271 382.627C312.652 382.974 312.032 383.352 311.427 383.73L311.336 383.504C309.325 378.968 306.906 374.522 304.865 369.896C302.946 365.481 301.609 360.835 300.888 356.076C302.4 364.528 307.919 372.285 311.805 379.784C312.349 380.691 312.833 381.659 313.271 382.627Z" fill="#455A64"/>
<path d="M310.368 380.691C310.368 380.691 309.159 367.718 311.26 361.035C313.362 354.352 320.695 345.356 320.695 345.356C322.438 351.623 322.395 358.252 320.57 364.496C318.746 370.74 315.212 376.349 310.368 380.691Z" fill="#455A64"/>
<path d="M497.115 585.25C499.897 586.172 579.051 585.945 582.06 584.025C583.194 583.315 583.844 571.778 584.222 557.822C584.302 554.798 584.368 551.704 584.418 548.539C584.418 544.789 584.524 540.978 584.539 537.319C584.645 520.793 584.418 506.233 584.418 506.233H532.874V537.319V548.539L533.146 557.822C533.146 557.822 502.906 571.43 499.792 573.925C496.677 576.42 494.424 584.343 497.115 585.25Z" fill="#F7A9A0"/>
<path d="M584.297 554.783C584.297 555.811 584.297 556.824 584.222 557.807C583.844 571.763 583.194 583.299 582.06 584.01C579.036 585.93 499.897 586.157 497.115 585.235C494.333 584.312 496.783 576.359 499.837 573.91C501.485 572.594 510.92 568.074 519.327 564.157C516.771 566.456 513.279 569.948 514.246 571.188C516.787 574.545 568.043 567.514 581.939 556.34C582.666 555.737 583.457 555.215 584.297 554.783Z" fill="#263238"/>
<path d="M601.595 286.645C601.595 286.645 587.669 424.388 587.351 426.127C587.351 426.354 587.2 429.015 587.064 433.324C586.308 457.047 584.464 530.984 584.464 530.984H527.688C527.688 530.984 531.392 443.409 533.524 422.982C536.231 396.915 553.331 286.645 553.331 286.645H601.595Z" fill="#37474F"/>
<path d="M580.608 430.92C582.362 401.073 584.998 371.297 588.516 341.591C590.512 324.868 592.916 308.191 595.305 291.498C595.305 291.362 595.547 291.362 595.531 291.498C591.132 321.194 587.971 351.117 585.341 381.009C582.71 410.901 580.805 440.793 579.565 470.731C578.869 487.711 578.34 504.69 577.796 521.655C577.796 521.739 577.762 521.82 577.703 521.88C577.643 521.939 577.562 521.973 577.478 521.973C577.394 521.973 577.313 521.939 577.254 521.88C577.194 521.82 577.161 521.739 577.161 521.655C577.917 491.4 578.794 461.16 580.608 430.92Z" fill="#263238"/>
<path d="M531.226 521.822C532.738 521.625 550.005 521.368 556.643 521.368C562.313 521.368 580.109 521.821 582.06 521.806C582.211 521.806 582.196 521.958 582.06 521.988C579.731 522.351 569.601 522.623 558.729 522.623C552.107 522.623 532.088 522.154 531.226 522.048C531.203 522.04 531.183 522.024 531.169 522.004C531.155 521.984 531.147 521.96 531.147 521.935C531.147 521.91 531.155 521.886 531.169 521.866C531.183 521.846 531.203 521.83 531.226 521.822Z" fill="#263238"/>
<path d="M601.595 286.645C601.595 286.645 587.669 424.388 587.352 426.127C587.352 426.354 587.2 429.015 587.064 433.324L560.272 286.66L601.595 286.645Z" fill="#263238"/>
<path d="M605.102 585.779C608.021 585.945 684.407 565.201 686.75 562.57C687.673 561.572 685.238 550.277 682.048 536.7C681.353 533.766 680.733 530.652 679.825 527.628C678.691 523.832 677.512 520.068 676.318 516.393C671.222 500.563 666.308 487.454 666.308 487.454L617.924 500.442L626.543 529.17L630.066 540.963L632.727 549.869C632.727 549.869 607.023 570.886 604.694 574.061C602.366 577.236 602.199 585.598 605.102 585.779Z" fill="#F7A9A0"/>
<path d="M686.811 562.57C684.407 565.201 608.021 585.945 605.087 585.779C602.154 585.613 602.472 577.282 604.785 574.122C606.206 572.201 616.201 563.704 623.851 557.338C621.644 559.939 618.196 564.369 619.315 565.533C622.249 568.421 669.831 554.949 683.333 542.113C685.934 553.165 687.597 561.708 686.811 562.57Z" fill="#263238"/>
<path d="M553.286 286.645C553.286 286.645 557.036 306.528 570.916 316.658C570.916 316.658 590.466 424.146 592.931 436.303C597.709 459.935 617.833 527.386 617.833 527.386L675.864 509.665C675.864 509.665 650.825 428.259 647.469 419.716C645.639 415.059 631.608 325.972 631.895 323.87C635.312 298.423 623.231 286.509 623.231 286.509L553.286 286.645Z" fill="#37474F"/>
<path d="M599.296 291.075C600.453 295.077 602.898 298.584 606.251 301.054C609.953 303.686 614.339 305.189 618.877 305.379C619.633 305.379 619.693 306.603 618.877 306.603C609.623 306.603 600.249 300.737 598.903 291.136C598.888 290.909 599.236 290.863 599.296 291.075Z" fill="#263238"/>
<path d="M562.026 310.353C565.386 311.705 568.594 313.408 571.597 315.433C574.772 317.399 577.644 319.697 580.789 321.829C580.806 321.849 580.817 321.873 580.819 321.899C580.821 321.924 580.815 321.95 580.801 321.972C580.788 321.994 580.767 322.011 580.744 322.021C580.72 322.03 580.693 322.032 580.668 322.026C577.463 320.181 574.106 318.563 570.916 316.658C567.717 314.919 564.68 312.894 561.844 310.61C561.784 310.504 561.889 310.308 562.026 310.353Z" fill="#263238"/>
<path d="M560.725 291.045C561.224 293.162 561.829 295.248 562.388 297.365C562.948 299.482 563.326 301.357 563.9 303.307C564.422 305.199 565.471 306.903 566.924 308.221C567.741 308.902 568.633 309.506 569.495 310.141L571.007 311.139C571.007 310.867 570.871 310.58 570.795 310.293C570.614 309.491 570.447 308.675 570.266 307.873C569.888 306.089 569.51 304.29 569.162 302.491C568.451 298.968 567.786 295.399 566.894 291.907C566.894 291.879 566.905 291.852 566.925 291.832C566.945 291.812 566.972 291.801 567 291.801C567.028 291.801 567.055 291.812 567.075 291.832C567.095 291.852 567.106 291.879 567.106 291.907C568.149 295.354 569.283 298.756 570.221 302.234C570.674 303.927 572.413 312.379 572.504 312.984C572.594 313.589 572.67 314.224 572.715 314.844C572.828 315.472 572.858 316.113 572.806 316.749C572.806 316.915 572.594 316.9 572.519 316.749C572.236 316.173 572.028 315.563 571.899 314.934C571.717 314.33 571.551 313.725 571.415 313.105L571.279 312.44C570.417 311.956 569.601 311.321 568.799 310.792C567.998 310.262 567.045 309.658 566.214 309.023C564.681 307.844 563.538 306.232 562.933 304.396C562.331 302.421 561.901 300.397 561.647 298.348C561.269 295.944 560.967 293.525 560.513 291.136C560.483 290.954 560.695 290.894 560.725 291.045Z" fill="#263238"/>
<path d="M619.814 515.199C621.19 514.579 637.656 509.302 644.006 507.367C649.449 505.719 666.596 500.956 668.455 500.381C668.591 500.381 668.637 500.487 668.455 500.548C666.338 501.576 656.737 504.781 646.335 507.941C639.984 509.877 620.706 515.275 619.844 515.426C619.82 515.421 619.797 515.408 619.78 515.39C619.763 515.371 619.752 515.348 619.748 515.323C619.745 515.298 619.75 515.273 619.761 515.25C619.773 515.228 619.792 515.21 619.814 515.199Z" fill="#263238"/>
<path d="M651.203 455.384C648.905 448.701 646.577 442.033 644.324 435.335C642.097 428.761 640.304 422.049 638.956 415.241C636.189 401.36 633.8 387.374 631.547 373.388C630.418 366.332 629.345 359.236 628.327 352.099C627.843 348.592 627.364 345.064 626.89 341.515C626.437 338.098 625.877 334.696 625.696 331.249C625 318.518 629.536 305.061 624.002 292.905C623.383 291.549 622.622 290.262 621.734 289.064C621.659 288.958 621.477 289.064 621.553 289.185C628.932 300.722 624.879 314.738 624.668 327.454C624.804 334.422 625.486 341.368 626.709 348.229C627.717 355.184 628.76 362.129 629.839 369.064C631.986 382.985 634.355 396.875 636.945 410.735C638.077 417.551 639.622 424.291 641.572 430.92C643.674 437.603 646.108 444.195 648.376 450.818C653.033 464.199 665.008 497.69 665.598 499.383C665.598 499.519 665.885 499.459 665.824 499.308C661.288 485.881 655.83 468.841 651.203 455.384Z" fill="#263238"/>
<path d="M576.707 212.769C563.401 226.815 531.09 242.434 520.43 242.434C508.334 242.434 487.862 225.575 472.5 211.362C469.128 208.248 489.903 177.675 493.668 180.881C502.967 188.909 524.739 210.833 528.111 211.362C533.04 212.134 552.908 206.826 568.648 202.381C586.096 197.407 583.466 205.632 576.707 212.769Z" fill="#F7A9A0"/>
<path d="M483.371 214.402C487.711 214.402 498.809 188.063 496.616 184.162C495.756 182.936 494.74 181.828 493.592 180.865C490.915 175.307 489.061 169.388 488.089 163.296C487.166 155.978 486.652 145.016 482.691 145.364C476.93 145.848 475.932 159.803 475.842 167.847C472.062 165.655 468.599 164.128 466.255 163.976C458.469 163.477 451.831 197.951 457.698 203.288C463.564 208.626 479.032 214.417 483.371 214.402Z" fill="#F7A9A0"/>
<path d="M449.2 209.881C449.2 209.881 457.803 211.393 462.037 206.963C475.252 193.143 460.268 149.975 452.965 151.729C445.662 153.483 438.616 180.805 438.616 180.805L449.2 209.881ZM449.533 205.662L441.292 182.982C441.292 182.982 447.129 159.198 452.799 157.838C458.469 156.477 469.809 192.614 459.512 203.364C456.216 206.857 449.533 205.632 449.533 205.632V205.662Z" fill="#37474F"/>
<path d="M377.274 188.38L379.92 201.792L368.459 208.459L377.274 188.38Z" fill="#455A64"/>
<path d="M420.744 241.315L465.696 221.417L428.909 158.125L400.181 171.143L420.744 241.315Z" fill="#455A64"/>
<path d="M428.909 158.125L431.359 151.23L394.33 167.167L400.181 171.143L428.909 158.125Z" fill="#37474F"/>
<path d="M410.493 206.312L415.316 222.793L377.108 203.394L379.331 198.722L410.493 206.312Z" fill="#37474F"/>
<path d="M373.464 194.489C369.245 190.406 360.113 190.058 360.068 193.929C360.068 196.061 363.334 196.666 367.325 195.154C369.283 194.419 371.394 194.19 373.464 194.489Z" fill="#EBEBEB"/>
<path d="M367.234 208.218C363.848 209.73 361.428 214.885 363.651 215.778C364.891 216.307 366.04 214.553 366.131 211.877C366.189 210.584 366.568 209.327 367.234 208.218Z" fill="#EBEBEB"/>
<path d="M368.535 201.096C366.321 200.657 364.04 200.682 361.836 201.169C359.631 201.656 357.552 202.593 355.728 203.923C350.965 207.371 348.168 214.507 352.704 216.276C354.458 217.017 356.938 215.52 358.858 212.708C361.776 208.369 363.439 202.789 368.535 201.096Z" fill="#EBEBEB"/>
<path d="M478.079 167.106C479.243 170.992 473.997 170.13 473.997 170.13C473.997 170.13 481.239 173.154 480.876 177.69C480.514 182.226 474.224 180.714 473.77 180.714C474.163 180.881 480.74 183.874 479.924 188.274C479.107 192.674 472.954 190.542 472.56 190.391C472.878 190.663 476.93 194.292 475.584 197.528C473.18 203.092 462.551 194.095 457.682 194.715C457.682 194.715 457.788 203.077 457.682 203.319C457.682 203.319 447.401 194.972 446.932 188.35C446.857 187.381 447.116 186.416 447.667 185.616C448.217 184.815 449.025 184.227 449.956 183.95C449.956 183.95 446.342 181.637 446.932 178.098C447.204 176.299 450.349 175.074 450.349 175.074C449.56 174.506 448.942 173.731 448.564 172.835C448.185 171.939 448.06 170.956 448.202 169.994C448.731 167.514 451.816 166.728 451.816 166.728C451.816 166.728 449.986 163.568 451.347 161.209C453.993 156.447 475.615 158.76 478.079 167.106Z" fill="#F7A9A0"/>
<path d="M452.163 166.532C452.163 166.532 452.088 166.426 452.163 166.426C459.744 165.39 467.459 166.688 474.284 170.145C474.496 170.266 474.405 170.659 474.148 170.584C467.056 168.172 459.65 166.807 452.163 166.532Z" fill="#263238"/>
<path d="M450.137 175.014C450.137 175.014 450.137 174.878 450.137 174.863C458.507 173.809 466.976 175.789 474.012 180.442C474.254 180.608 474.314 181.001 474.012 180.82C469.098 177.887 457.168 175.18 450.137 175.014Z" fill="#263238"/>
<path d="M472.938 190.845C466.013 186.309 458.348 184.555 450.258 183.829C450.153 183.829 450.168 183.678 450.258 183.663C454.341 182.937 459.482 183.935 463.413 185.054C467.082 186.024 470.434 187.937 473.135 190.603C473.256 190.709 473.09 190.935 472.938 190.845Z" fill="#263238"/>
<path d="M474.118 170.07C474.375 170.206 473.891 170.433 474.118 170.584C475.176 171.189 481.239 175.468 480.423 177.978C479.773 179.988 476.597 180.503 475.312 180.23L472.061 179.535L474.874 181.319C476.129 182.099 477.248 183.08 478.185 184.222C478.648 184.726 478.999 185.322 479.215 185.97C479.431 186.619 479.508 187.306 479.44 187.987C479.376 188.621 479.094 189.214 478.642 189.664C478.19 190.113 477.595 190.392 476.96 190.452C475.54 190.567 474.114 190.317 472.817 189.726L469.173 188.214L472.107 190.814C472.924 191.536 473.645 192.359 474.254 193.264C474.865 194.101 475.213 195.101 475.252 196.137C475.255 196.601 475.128 197.057 474.884 197.453C474.641 197.848 474.292 198.168 473.876 198.374C472.873 198.702 471.797 198.733 470.776 198.465C468.562 197.929 466.394 197.221 464.29 196.348C463.216 195.94 462.128 195.532 461.024 195.169C459.937 194.746 458.771 194.566 457.607 194.64C458.754 194.697 459.879 194.98 460.918 195.471C461.976 195.91 463.02 196.394 464.063 196.878C466.149 197.926 468.331 198.772 470.58 199.403C471.788 199.766 473.076 199.766 474.284 199.403C474.924 199.136 475.472 198.687 475.859 198.112C476.246 197.537 476.455 196.86 476.461 196.167C476.444 194.885 476.043 193.637 475.312 192.583C474.653 191.564 473.865 190.634 472.969 189.816L472.258 190.905C473.782 191.635 475.472 191.948 477.157 191.812C478.086 191.718 478.953 191.301 479.606 190.633C480.227 189.956 480.628 189.108 480.755 188.199C480.849 187.335 480.756 186.461 480.482 185.637C480.208 184.812 479.76 184.056 479.168 183.421C478.117 182.179 476.871 181.117 475.479 180.276L475.04 181.364C476.688 181.667 480.287 181.47 481.693 178.476C482.978 174.318 475.539 170.644 474.118 170.07Z" fill="#263238"/>
<path d="M473.997 170.13C474.832 170.106 475.658 169.953 476.446 169.677C476.765 169.573 477.05 169.388 477.274 169.138C477.497 168.888 477.65 168.584 477.716 168.255C477.75 167.517 477.577 166.784 477.217 166.139C476.839 165.398 476.416 164.627 475.947 163.901C476.739 164.342 477.429 164.945 477.973 165.67C478.615 166.442 478.925 167.437 478.835 168.437C478.724 168.976 478.455 169.471 478.064 169.858C477.674 170.201 477.199 170.431 476.688 170.523C475.772 170.682 474.829 170.544 473.997 170.13Z" fill="#263238"/>
<path d="M496.223 181.727L482.615 230.504C482.615 230.504 508.168 243.447 518.994 243.674C529.82 243.901 560.952 229.491 577.841 212.708C584.358 206.222 585.401 197.361 569.48 201.262C553.558 205.163 531.604 209.639 529.941 209.306C528.278 208.974 496.223 181.727 496.223 181.727Z" fill="#EBEBEB"/>
<path d="M503.919 189.862C502.695 193.279 501.803 196.847 500.895 200.34C499.988 203.833 498.99 207.356 498.083 210.924C496.299 217.97 494.696 225.076 493.154 232.183C493.163 232.206 493.178 232.226 493.198 232.24C493.219 232.254 493.243 232.262 493.267 232.262C493.292 232.262 493.316 232.254 493.336 232.24C493.357 232.226 493.372 232.206 493.381 232.183C495.452 225.197 497.448 218.197 499.262 211.151C500.17 207.633 501.031 204.105 501.848 200.567C502.664 197.029 503.602 193.476 504.161 189.892C504.163 189.876 504.162 189.86 504.158 189.845C504.154 189.829 504.146 189.815 504.137 189.802C504.127 189.789 504.114 189.779 504.101 189.771C504.087 189.763 504.071 189.758 504.055 189.756C504.04 189.754 504.023 189.755 504.008 189.759C503.993 189.764 503.978 189.771 503.966 189.781C503.953 189.791 503.942 189.803 503.934 189.817C503.926 189.831 503.921 189.846 503.919 189.862Z" fill="#A6A6A6"/>
<path d="M554.39 256.783L550.837 293.721C550.837 293.721 613.176 291.559 627.949 289.79C627.949 289.79 609.986 221.946 593.173 205.39C584.766 197.119 575.422 198.223 569.752 204.574C568.24 206.176 551.442 230.882 549.99 240.075C548.765 248.195 554.39 256.783 554.39 256.783Z" fill="#BA68C8"/>
<path d="M587.11 154.466C589.075 157.354 603.893 164.37 611.634 151.714C619.376 139.059 603.348 123.152 590.874 132.058C582.483 138.03 582.952 148.327 587.11 154.466Z" fill="#263238"/>
<path d="M585.945 203.092C585.537 204.317 578.809 211.922 573.093 211.136C571.234 210.864 572.201 200.658 572.201 200.658L572.111 199.886L570.704 189.091L583.844 182.256L585.734 181.364C585.734 181.364 585.93 184.388 586.127 188.047C586.127 188.229 586.127 188.395 586.127 188.577V189.181L586.218 190.86C586.218 191.298 586.218 191.706 586.218 192.16C586.218 192.614 586.218 193.052 586.218 193.506C586.348 196.704 586.257 199.907 585.945 203.092Z" fill="#F7A9A0"/>
<path d="M586.127 188.047C584.79 190.92 582.844 193.467 580.424 195.512C578.003 197.556 575.166 199.049 572.111 199.886L570.704 189.091L583.844 182.256L585.734 181.364C585.734 181.364 585.93 184.343 586.127 188.047Z" fill="#263238"/>
<path d="M557.928 170.856C554.481 189.635 565.337 193.823 569.389 194.564C573.063 195.229 585.658 197.044 591.041 178.733C596.423 160.423 588.773 152.863 580.457 150.882C572.141 148.902 561.3 152.107 557.928 170.856Z" fill="#F7A9A0"/>
<path d="M561.194 167.938C561.619 167.924 562.043 167.889 562.464 167.832C562.934 167.848 563.396 167.71 563.779 167.439C563.881 167.331 563.946 167.193 563.962 167.046C563.978 166.898 563.946 166.75 563.87 166.622C563.68 166.391 563.43 166.216 563.148 166.114C562.866 166.013 562.562 165.99 562.267 166.048C561.65 166.065 561.062 166.313 560.619 166.743C560.529 166.85 560.471 166.981 560.453 167.12C560.435 167.259 560.458 167.401 560.519 167.527C560.58 167.653 560.676 167.759 560.796 167.832C560.915 167.905 561.054 167.942 561.194 167.938Z" fill="#263238"/>
<path d="M573.789 169.798C573.35 169.692 572.972 169.525 572.534 169.374C572.073 169.292 571.652 169.058 571.339 168.709C571.263 168.581 571.232 168.43 571.251 168.282C571.27 168.134 571.339 167.997 571.445 167.892C571.684 167.71 571.966 167.595 572.263 167.558C572.561 167.521 572.863 167.563 573.139 167.681C573.73 167.838 574.243 168.21 574.575 168.724C574.646 168.846 574.68 168.986 574.673 169.127C574.665 169.268 574.617 169.404 574.534 169.518C574.45 169.632 574.335 169.719 574.203 169.769C574.071 169.819 573.927 169.829 573.789 169.798Z" fill="#263238"/>
<path d="M570.523 173.744C570.523 173.744 570.614 173.744 570.614 173.865C570.387 175.15 570.357 176.662 571.46 177.252C570.024 176.904 570.115 174.923 570.523 173.744Z" fill="#263238"/>
<path d="M571.853 172.549C573.955 172.685 573.547 176.859 571.612 176.738C569.676 176.617 570.1 172.444 571.853 172.549Z" fill="#263238"/>
<path d="M572.655 172.852C573.003 173.124 573.32 173.578 573.759 173.668C574.197 173.759 574.681 173.366 575.059 172.973C575.059 173.774 574.605 174.485 573.744 174.591C572.882 174.696 572.458 173.865 572.337 173.079C572.368 172.958 572.519 172.746 572.655 172.852Z" fill="#263238"/>
<path d="M563.371 172.565C563.371 172.565 563.265 172.565 563.265 172.67C563.265 173.971 562.887 175.452 561.753 175.694C563.129 175.77 563.507 173.88 563.371 172.565Z" fill="#263238"/>
<path d="M562.343 171.113C560.272 170.765 559.727 174.938 561.647 175.256C563.568 175.573 564.067 171.4 562.343 171.113Z" fill="#263238"/>
<path d="M561.436 171.279C561.073 171.446 560.695 171.809 560.302 171.793C559.909 171.778 559.561 171.264 559.334 170.796C559.334 170.796 559.334 170.796 559.259 170.796C559.138 171.582 559.259 172.444 560.03 172.701C560.801 172.958 561.315 172.308 561.542 171.536C561.663 171.446 561.572 171.204 561.436 171.279Z" fill="#263238"/>
<path d="M569.827 183.799C569.51 184.086 569.177 184.494 568.693 184.509C568.212 184.476 567.743 184.342 567.318 184.116C567.492 184.38 567.735 184.592 568.019 184.73C568.304 184.869 568.62 184.928 568.935 184.902C569.202 184.848 569.446 184.715 569.637 184.521C569.828 184.327 569.958 184.081 570.009 183.814C570.009 183.814 569.873 183.768 569.827 183.799Z" fill="#263238"/>
<path d="M564.929 178.552C564.929 178.552 564.46 180.442 564.354 181.364C564.354 181.364 564.566 181.516 564.868 181.561C565.633 181.787 566.446 181.798 567.217 181.593C567.987 181.388 568.687 180.974 569.238 180.397C569.313 180.397 569.238 180.215 569.117 180.261C567.872 180.927 566.446 181.176 565.05 180.971C565.05 180.714 565.972 177.736 565.821 177.705C565.107 177.693 564.394 177.78 563.704 177.962C564.581 173.971 566.093 170.145 566.909 166.169C566.91 166.14 566.902 166.112 566.887 166.088C566.871 166.064 566.848 166.046 566.821 166.036C566.794 166.026 566.765 166.025 566.737 166.032C566.71 166.04 566.685 166.056 566.667 166.078C564.93 170.12 563.598 174.323 562.691 178.628C562.6 179.142 564.551 178.658 564.929 178.552Z" fill="#263238"/>
<path d="M565.019 180.865C565.4 181.7 565.995 182.42 566.743 182.952C567.153 183.229 567.639 183.371 568.134 183.36C569.223 183.36 569.465 182.393 569.465 181.531C569.45 181.082 569.389 180.636 569.283 180.2C567.968 180.867 566.475 181.1 565.019 180.865Z" fill="#263238"/>
<path d="M566.743 182.952C567.153 183.229 567.639 183.372 568.134 183.36C569.223 183.36 569.465 182.393 569.465 181.531C568.917 181.428 568.351 181.512 567.857 181.769C567.364 182.027 566.971 182.444 566.743 182.952Z" fill="#FF9ABB"/>
<path d="M590.784 178.915C589.587 178.276 588.576 177.336 587.853 176.188C587.129 175.04 586.717 173.724 586.656 172.368C583.406 170.811 580.629 168.415 578.612 165.428C578.733 165.821 579.55 168.664 580.003 170.1C576.682 169.486 573.558 168.079 570.897 166C568.236 163.92 566.116 161.229 564.717 158.155C562.349 160.183 560.472 162.721 559.228 165.579C559.228 165.579 559.455 158.276 563.341 153.483C576.42 137.199 590.799 154.617 590.799 154.617C590.799 154.617 595.622 157.354 596.272 162.177C597.542 171.778 590.784 178.915 590.784 178.915Z" fill="#263238"/>
<path d="M570.961 167.832C572.844 168.949 574.882 169.78 577.009 170.297C573.673 169.27 570.692 167.326 568.406 164.687C567.434 163.559 566.606 162.315 565.942 160.983C565.167 159.581 564.679 158.039 564.505 156.447C564.505 156.326 564.324 156.341 564.324 156.447C564.319 158.067 564.585 159.677 565.11 161.209C565.703 162.7 566.558 164.073 567.635 165.262C568.609 166.304 569.723 167.204 570.946 167.938" fill="#263238"/>
<path d="M587.714 178.008C587.714 178.008 592.432 172.474 594.972 174.213C597.512 175.951 593.581 184.252 590.315 185.129C589.902 185.269 589.466 185.325 589.031 185.292C588.597 185.259 588.173 185.139 587.786 184.938C587.399 184.738 587.057 184.461 586.78 184.125C586.502 183.789 586.296 183.4 586.172 182.982L587.714 178.008Z" fill="#F7A9A0"/>
<path d="M593.793 176.556C593.793 176.556 593.793 176.556 593.793 176.647C592.728 177.058 591.76 177.687 590.953 178.494C590.146 179.302 589.516 180.269 589.105 181.334C589.256 181.125 589.45 180.951 589.674 180.824C589.898 180.697 590.147 180.619 590.403 180.596C590.66 180.573 590.919 180.605 591.162 180.691C591.405 180.777 591.626 180.913 591.812 181.092C591.812 181.092 591.812 181.228 591.736 181.213C591.359 181.052 590.941 181.012 590.54 181.099C590.14 181.186 589.776 181.395 589.499 181.697C589.032 182.202 588.626 182.761 588.289 183.36C588.168 183.542 587.82 183.36 587.911 183.179C588.168 180.306 590.723 176.556 593.793 176.556Z" fill="#263238"/>
<path d="M586.384 200.703C586.384 200.703 581.107 226.286 584.207 261.636C590.043 328.301 606.584 426.792 610.561 433.324C616.609 443.349 680.022 449.79 680.022 449.79C666.903 394.016 650.427 339.086 630.685 285.299C630.685 285.299 617.682 247.771 613.071 237.762C595.728 200.264 586.384 200.703 586.384 200.703Z" fill="#EBEBEB"/>
<path d="M645.775 339.973C639.956 341.764 634.033 343.198 628.039 344.267C619.648 345.628 611.165 346.157 608.761 346.505C608.535 346.505 608.55 347.261 608.761 347.261C611.952 347.155 621.75 346.566 628.16 345.537C634.022 344.531 639.785 343.013 645.382 341.001C645.639 342.786 645.851 344.177 646.138 345.946C640.408 348.047 629.294 351.873 610.44 352.477C610.273 351.737 609.729 347.76 609.396 346.702C609.396 346.535 608.656 346.626 608.671 346.883C608.671 347.972 609.79 357.558 610.092 359.493C610.833 364.271 613.313 377.637 614.915 380.117C618.559 385.59 630.035 383.746 633.256 383.262C636.476 382.778 646.758 381.432 650.009 377.063C651.732 374.719 650.417 363.727 648.497 354.126C647.62 349.59 646.062 340.019 645.775 339.973ZM633.921 381.961C623.745 383.61 618.983 382.203 617.077 380.328C614.84 378.151 614.053 373.857 613.086 369.125C612.375 365.405 610.621 353.672 610.561 353.43C622.754 353.634 634.874 351.514 646.274 347.185C647.196 352.734 647.922 357.165 648.829 362.729C649.48 366.751 650.341 373.524 648.648 376.201C647.257 378.438 641.269 380.767 633.921 381.961Z" fill="#A6A6A6"/>
<path d="M629.491 343.224C631.381 348.728 629.31 357.558 633.649 357.422C637.52 357.301 638.351 351.041 638.351 351.041C638.351 351.041 639.682 358.404 643.795 357.089C647.907 355.774 647.438 348.728 647.438 348.728C647.438 348.728 648.27 354.897 652.277 353.264C656.284 351.631 656.979 345.598 656.979 345.598C656.979 345.598 658.491 347.201 660.759 344.796C664.086 341.349 662.664 331.098 660.668 325.912C658.673 320.725 647.469 303.232 645.7 300.616L612.36 313.226C612.36 313.226 611.695 324.082 612.012 329.631C612.33 335.18 618.499 353.158 623.065 351.933C627.631 350.708 623.065 338.083 622.627 334.742C622.188 331.4 622.884 330.735 624.244 332.096C625.136 332.973 628.659 340.744 629.491 343.224Z" fill="#F7A9A0"/>
<path d="M638.245 350.784C638.805 341.984 637.52 338.038 633.362 330.432C633.286 330.281 633.483 330.13 633.589 330.266C638.336 337.357 640.65 342.075 638.669 350.829C638.578 351.177 638.215 351.117 638.245 350.784Z" fill="#263238"/>
<path d="M647.333 349.06C647.106 339.882 645.821 335.588 641.98 327.303C641.98 327.182 642.131 327.076 642.192 327.197C646.577 335.014 648.769 339.777 647.786 348.985C647.741 349.393 647.333 349.484 647.333 349.06Z" fill="#263238"/>
<path d="M656.903 345.507C656.057 336.632 654.772 331.899 650.084 324.339C650.067 324.322 650.054 324.301 650.046 324.277C650.038 324.254 650.036 324.23 650.038 324.206C650.041 324.181 650.049 324.158 650.061 324.137C650.074 324.116 650.091 324.098 650.111 324.085C650.132 324.071 650.155 324.062 650.179 324.059C650.203 324.055 650.228 324.057 650.251 324.064C650.274 324.071 650.296 324.083 650.314 324.099C650.332 324.115 650.347 324.135 650.357 324.158C655.89 331.415 657.523 337.357 657.176 345.507C657.145 346.006 656.964 346.067 656.903 345.507Z" fill="#263238"/>
<path d="M598.102 211.544C617.879 238.382 643.87 295.052 647.272 304.124C649.586 310.262 614.522 322.736 613.57 318.321C612.375 312.682 593.838 241.89 588.894 215.657C586.172 201.202 593.218 204.906 598.102 211.544Z" fill="#F7A9A0"/>
<path d="M606.312 308.448L647.348 298.182C647.348 298.182 609.774 225.107 599.402 211.483C588.818 197.634 586.913 205.435 588.818 220.283C590.98 236.31 606.312 308.448 606.312 308.448Z" fill="#EBEBEB"/>
<path d="M641.768 293.721C638.971 294.054 636.189 294.795 633.437 295.384C630.685 295.974 627.903 296.594 625.151 297.229C619.633 298.499 614.114 299.799 608.671 301.342C608.648 301.35 608.628 301.366 608.613 301.386C608.599 301.406 608.592 301.43 608.592 301.455C608.592 301.48 608.599 301.504 608.613 301.524C608.628 301.544 608.648 301.56 608.671 301.568C614.25 300.601 619.784 299.361 625.303 298.091C628.009 297.471 630.701 296.821 633.392 296.171C636.083 295.52 639.062 294.931 641.783 294.008C641.813 293.997 641.839 293.976 641.856 293.95C641.874 293.923 641.882 293.891 641.88 293.859C641.879 293.827 641.867 293.797 641.847 293.772C641.827 293.747 641.799 293.729 641.768 293.721Z" fill="#A6A6A6"/>
<path d="M610.727 307.329C609.956 307.329 606.826 307.677 606.705 307.722C606.705 307.329 604.664 294.265 604.12 291.559C603.061 286.267 601.927 280.975 600.823 275.698C598.571 265.008 596.182 254.349 593.853 243.674C592.538 237.626 591.177 231.684 589.71 225.711C589.71 225.575 589.468 225.636 589.483 225.787C590.103 229.28 590.754 232.757 591.434 236.25C590.784 234.738 590.103 233.226 589.514 231.714C589.514 231.578 589.226 231.714 589.287 231.714C589.907 233.226 590.436 234.904 591.011 236.492C591.313 237.339 591.646 238.17 591.993 238.987C593.233 245.292 594.534 251.582 595.819 257.872C597.996 268.577 600.143 279.297 602.502 289.971C603.152 292.905 605.995 308.569 606.1 308.539C606.206 308.508 610.107 307.677 610.833 307.374C610.848 307.465 610.848 307.314 610.727 307.329Z" fill="#A6A6A6"/>
<path d="M571.763 202.699C571.763 202.699 560.498 217.547 557.187 264.282C553.604 314.708 545.953 423.965 545.363 427.836C544.774 431.706 528.988 440.748 528.988 440.748L553.286 256.949C553.286 256.949 548.75 247.877 549.567 241.209C550.565 232.319 567.408 204.679 571.763 202.699Z" fill="#EBEBEB"/>
<path d="M559.894 218.847C558.76 220.359 557.747 222.128 556.749 223.821L556.93 223.217C557.217 222.34 557.444 221.432 557.656 220.525C557.656 220.525 557.58 220.434 557.55 220.525C557.232 221.402 556.915 222.294 556.673 223.186L556.219 224.698C555.615 225.696 553.679 229.945 553.195 230.958C553.12 231.094 553.347 231.215 553.407 231.079C553.891 230.036 556.295 226.029 556.824 225.031C557.868 222.959 559.047 220.949 560.09 218.862L559.894 218.847Z" fill="#A6A6A6"/>
<path d="M571.763 202.699C568.043 207.547 564.299 212.381 560.529 217.199V216.806L563.447 219.421L563.674 219.633L563.462 219.875L557.414 226.74L557.505 226.513C557.505 232.803 557.505 239.108 557.505 245.398C557.505 251.688 557.353 257.993 557.187 264.282C557.006 257.993 556.915 251.688 556.855 245.398C556.794 239.108 556.779 232.803 556.855 226.513V226.377L556.93 226.271L562.978 219.452V219.89L560.12 217.229L559.924 217.048L560.09 216.836C563.951 212.088 567.842 207.376 571.763 202.699Z" fill="#A6A6A6"/>
<path d="M586.354 200.658C588.37 206.464 590.355 212.285 592.311 218.121L592.417 218.424H592.099L586.444 219.527L586.656 219.24L589.861 227.148V227.254C589.06 233.302 588.138 239.501 587.261 245.609C586.384 251.718 585.401 257.841 584.373 263.95C585.068 257.801 585.819 251.662 586.626 245.534C587.457 239.395 588.259 233.271 589.166 227.148V227.329L586.021 219.406L585.87 219.028H586.263L591.933 217.985L591.706 218.363C589.922 212.436 588.168 206.539 586.354 200.658Z" fill="#A6A6A6"/>
<path d="M682.986 629.748H505.688V652.322H682.986V629.748Z" fill="#455A64"/>
<path d="M650.689 585.779H497.645V608.353H650.689V585.779Z" fill="#455A64"/>
<path d="M506.142 669.937H493.139L506.55 608.353H532.98L506.142 669.937Z" fill="#455A64"/>
<path d="M506.565 608.338H532.98L526.267 623.745H503.209L506.565 608.338Z" fill="#37474F"/>
<path d="M642.222 669.937H655.225L641.799 608.353H615.369L642.222 669.937Z" fill="#455A64"/>
<path d="M645.155 623.745H622.082L615.369 608.338H641.799L645.155 623.745Z" fill="#37474F"/>
</svg>
