<svg width="20" height="20" viewBox="0 0 20 20" fill="none" xmlns="http://www.w3.org/2000/svg">
<path fill-rule="evenodd" clip-rule="evenodd" d="M0.801444 5.24913C1.61307 4.28419 3.00458 3.8125 5.04237 3.8125H14.209C16.2468 3.8125 17.6383 4.28419 18.45 5.24913C19.2537 6.20469 19.3302 7.46006 19.2013 8.63061L18.5135 15.9674C18.4125 16.9098 18.176 17.943 17.3345 18.7117C16.4993 19.4748 15.2053 19.8542 13.2924 19.8542H5.95903C4.04609 19.8542 2.7521 19.4748 1.91689 18.7117C1.07545 17.943 0.838918 16.9098 0.737946 15.9674L0.736975 15.9583L0.0500626 8.63063C-0.0787558 7.46008 -0.00230713 6.2047 0.801444 5.24913ZM1.85371 6.13421C1.42129 6.6483 1.29957 7.42076 1.41736 8.48522L1.41863 8.49665L2.1056 15.8254C2.19731 16.6773 2.38716 17.279 2.84431 17.6966C3.30847 18.1206 4.18698 18.4792 5.95903 18.4792H13.2924C15.0644 18.4792 15.9429 18.1206 16.4071 17.6966C16.8642 17.279 17.0541 16.6773 17.1458 15.8254L17.8339 8.48521C17.9517 7.42075 17.8301 6.6483 17.3977 6.13421C16.9718 5.62789 16.0854 5.1875 14.209 5.1875H5.04237C3.16598 5.1875 2.27958 5.62789 1.85371 6.13421Z" fill="#231F20"/>
<path fill-rule="evenodd" clip-rule="evenodd" d="M6.68653 2.71285C6.64759 3.01112 6.64649 3.35008 6.64649 3.76667V4.5C6.64649 4.8797 6.33868 5.1875 5.95899 5.1875C5.57929 5.1875 5.27149 4.8797 5.27149 4.5L5.27149 3.74284C5.27146 3.35461 5.27144 2.93056 5.32311 2.53484C5.37664 2.12481 5.49135 1.68951 5.76009 1.30068C6.32543 0.482703 7.36104 0.145836 8.89232 0.145836H10.359C11.8903 0.145836 12.9259 0.482703 13.4912 1.30068C13.76 1.68951 13.8747 2.12481 13.9282 2.53484C13.9799 2.93057 13.9798 3.35462 13.9798 3.74285L13.9798 4.5C13.9798 4.8797 13.672 5.1875 13.2923 5.1875C12.9126 5.1875 12.6048 4.8797 12.6048 4.5V3.76667C12.6048 3.35008 12.6037 3.01112 12.5648 2.71285C12.5266 2.42076 12.458 2.22414 12.3601 2.08245C12.1921 1.83939 11.761 1.52084 10.359 1.52084H8.89232C7.49027 1.52084 7.05921 1.83939 6.89122 2.08245C6.79329 2.22414 6.72467 2.42076 6.68653 2.71285Z" fill="#231F20"/>
<path fill-rule="evenodd" clip-rule="evenodd" d="M8.48072 10.6882C8.48001 10.7537 8.47999 10.8283 8.47999 10.9167V11.8608C8.47999 12.1189 8.48224 12.3087 8.50465 12.4698C8.5262 12.6246 8.56042 12.7 8.58943 12.7409C8.62178 12.7865 8.78301 12.9792 9.62582 12.9792C10.4724 12.9792 10.6318 12.7847 10.6634 12.7395C10.6926 12.6978 10.7267 12.6213 10.7479 12.4646C10.77 12.3017 10.7717 12.111 10.7717 11.8517V10.9167C10.7717 10.8283 10.7716 10.7537 10.7709 10.6882C10.7055 10.6875 10.6309 10.6875 10.5425 10.6875H8.70916C8.62075 10.6875 8.54616 10.6875 8.48072 10.6882ZM8.67904 9.3125C8.68909 9.3125 8.69913 9.3125 8.70916 9.3125H10.5425C10.5525 9.3125 10.5626 9.3125 10.5726 9.3125C10.7753 9.31245 10.9807 9.3124 11.1484 9.33103C11.3192 9.35001 11.603 9.40078 11.8307 9.62845C12.0584 9.85612 12.1091 10.1399 12.1281 10.3108C12.1468 10.4784 12.1467 10.6838 12.1467 10.8866C12.1467 10.8966 12.1467 10.9066 12.1467 10.9167V11.862C12.1467 12.1 12.1467 12.3817 12.1105 12.649C12.073 12.9263 11.9908 13.241 11.7897 13.5282C11.3607 14.1407 10.6034 14.3542 9.62582 14.3542C8.65364 14.3542 7.8982 14.1435 7.46763 13.536C7.26518 13.2504 7.18138 12.9367 7.14278 12.6593C7.10503 12.3881 7.10499 12.1024 7.10499 11.8608V10.9167C7.10499 10.9066 7.10499 10.8966 7.10499 10.8866C7.10494 10.6838 7.10489 10.4784 7.12352 10.3108C7.1425 10.1399 7.19326 9.85612 7.42094 9.62845C7.64861 9.40078 7.93242 9.35001 8.10329 9.33103C8.27091 9.3124 8.47633 9.31245 8.67904 9.3125Z" fill="#231F20"/>
<path fill-rule="evenodd" clip-rule="evenodd" d="M19.0276 8.67897C19.2509 8.98604 19.183 9.41602 18.8759 9.63934C16.6611 11.2501 14.1307 12.2082 11.545 12.5338C11.1682 12.5812 10.8244 12.3143 10.7769 11.9376C10.7295 11.5608 10.9964 11.217 11.3732 11.1696C13.7374 10.8718 16.047 9.99657 18.0672 8.52733C18.3743 8.30401 18.8042 8.3719 19.0276 8.67897Z" fill="#231F20"/>
<path fill-rule="evenodd" clip-rule="evenodd" d="M0.460072 8.94253C0.67453 8.6292 1.10239 8.54904 1.41572 8.7635C3.38554 10.1117 5.60684 10.9243 7.86891 11.1776C8.24625 11.2199 8.51789 11.56 8.47564 11.9373C8.43339 12.3147 8.09325 12.5863 7.71591 12.5441C5.22964 12.2657 2.79428 11.3733 0.639099 9.89817C0.325767 9.68372 0.245614 9.25586 0.460072 8.94253Z" fill="#231F20"/>
</svg>
