<svg width="18" height="18" viewBox="0 0 18 18" fill="none" xmlns="http://www.w3.org/2000/svg">
<path d="M6.10322 0.956238H2.53135C1.5751 0.956238 0.787598 1.74374 0.787598 2.69999V6.27186C0.787598 7.22811 1.5751 8.01561 2.53135 8.01561H6.10322C7.05947 8.01561 7.84697 7.22811 7.84697 6.27186V2.72811C7.8751 1.74374 7.0876 0.956238 6.10322 0.956238ZM6.60947 6.29999C6.60947 6.58124 6.38447 6.80624 6.10322 6.80624H2.53135C2.2501 6.80624 2.0251 6.58124 2.0251 6.29999V2.72811C2.0251 2.44686 2.2501 2.22186 2.53135 2.22186H6.10322C6.38447 2.22186 6.60947 2.44686 6.60947 2.72811V6.29999Z" fill="#231F20"/>
<path d="M15.4689 0.956238H11.8971C10.9408 0.956238 10.1533 1.74374 10.1533 2.69999V6.27186C10.1533 7.22811 10.9408 8.01561 11.8971 8.01561H15.4689C16.4252 8.01561 17.2127 7.22811 17.2127 6.27186V2.72811C17.2127 1.74374 16.4252 0.956238 15.4689 0.956238ZM15.9752 6.29999C15.9752 6.58124 15.7502 6.80624 15.4689 6.80624H11.8971C11.6158 6.80624 11.3908 6.58124 11.3908 6.29999V2.72811C11.3908 2.44686 11.6158 2.22186 11.8971 2.22186H15.4689C15.7502 2.22186 15.9752 2.44686 15.9752 2.72811V6.29999Z" fill="#231F20"/>
<path d="M6.10322 9.9281H2.53135C1.5751 9.9281 0.787598 10.7156 0.787598 11.6719V15.2437C0.787598 16.2 1.5751 16.9875 2.53135 16.9875H6.10322C7.05947 16.9875 7.84697 16.2 7.84697 15.2437V11.7C7.8751 10.7156 7.0876 9.9281 6.10322 9.9281ZM6.60947 15.2719C6.60947 15.5531 6.38447 15.7781 6.10322 15.7781H2.53135C2.2501 15.7781 2.0251 15.5531 2.0251 15.2719V11.7C2.0251 11.4187 2.2501 11.1937 2.53135 11.1937H6.10322C6.38447 11.1937 6.60947 11.4187 6.60947 11.7V15.2719Z" fill="#231F20"/>
<path d="M15.4689 9.9281H11.8971C10.9408 9.9281 10.1533 10.7156 10.1533 11.6719V15.2437C10.1533 16.2 10.9408 16.9875 11.8971 16.9875H15.4689C16.4252 16.9875 17.2127 16.2 17.2127 15.2437V11.7C17.2127 10.7156 16.4252 9.9281 15.4689 9.9281ZM15.9752 15.2719C15.9752 15.5531 15.7502 15.7781 15.4689 15.7781H11.8971C11.6158 15.7781 11.3908 15.5531 11.3908 15.2719V11.7C11.3908 11.4187 11.6158 11.1937 11.8971 11.1937H15.4689C15.7502 11.1937 15.9752 11.4187 15.9752 11.7V15.2719Z" fill="#231F20"/>
</svg>
